# Blender 3.4.1
# www.blender.org
mtllib PlayerTankCannon.mtl
o Cylinder.001
v -0.000402 0.009177 0.089311
v -0.000402 0.039929 0.384827
v 0.025329 -0.005599 0.090849
v 0.025329 0.025153 0.386365
v 0.025329 -0.035151 0.093924
v 0.025329 -0.004399 0.389440
v -0.000402 -0.049927 0.095462
v -0.000402 -0.019175 0.390977
v -0.026133 -0.035151 0.093924
v -0.026133 -0.004399 0.389440
v -0.026133 -0.005599 0.090849
v -0.026133 0.025153 0.386365
v 0.039199 0.032697 0.381493
v -0.000402 0.055437 0.379126
v 0.039199 -0.012785 0.386225
v -0.000402 -0.035525 0.388592
v -0.040003 -0.012785 0.386225
v -0.040003 0.032697 0.381493
v -0.000402 0.009444 0.378935
v 0.042584 0.042291 0.454805
v -0.000402 0.066976 0.452236
v 0.042584 -0.007079 0.459942
v -0.000402 -0.031763 0.462511
v -0.043388 -0.007079 0.459942
v -0.043388 0.042291 0.454805
v 0.031976 0.036199 0.455438
v -0.000402 0.054792 0.453503
v 0.031976 -0.000987 0.459307
v -0.000402 -0.019580 0.461242
v -0.032780 -0.000987 0.459307
v -0.032780 0.036199 0.455438
v -0.133073 -0.139119 -0.137707
v -0.125905 -0.139119 -0.144874
v 0.125101 -0.139119 -0.144874
v 0.132269 -0.139119 -0.137707
v -0.077381 0.093212 0.058259
v -0.070059 0.093212 0.064775
v -0.097830 0.081735 0.092484
v -0.105090 0.081735 0.085225
v -0.070865 0.093212 -0.089183
v -0.077381 0.093212 -0.081861
v -0.109375 0.054026 -0.128369
v -0.116567 0.054026 -0.121176
v -0.097830 0.081735 -0.116892
v -0.105090 0.081735 -0.109632
v 0.070061 0.093212 0.064775
v 0.076577 0.093212 0.057454
v 0.097026 0.081735 0.092484
v 0.104286 0.081735 0.085225
v 0.076577 0.093212 -0.082666
v 0.069255 0.093212 -0.089183
v 0.115763 0.054026 -0.121176
v 0.108571 0.054026 -0.128369
v 0.104286 0.081735 -0.109632
v 0.097026 0.081735 -0.116892
v -0.125905 -0.139119 0.120467
v -0.133073 -0.139119 0.113299
v 0.132269 -0.139119 0.113299
v 0.125101 -0.139119 0.120467
v -0.116567 0.054026 0.096769
v -0.109375 0.054026 0.103962
v 0.108571 0.054026 0.103962
v 0.115763 0.054026 0.096769
v 0.025329 -0.026794 0.174236
vn -0.6862 0.3309 -0.6477
vn -0.3413 0.1009 -0.9345
vn -0.0000 0.2968 -0.9549
vn -0.0000 0.7250 -0.6887
vn 0.6862 -0.4572 -0.5657
vn 0.8660 -0.4973 0.0518
vn 0.3413 -0.2911 -0.8937
vn -0.0000 -0.4871 -0.8734
vn -0.0000 -0.8513 -0.5247
vn 0.3413 0.1009 -0.9345
vn 0.6199 0.2837 -0.7316
vn 0.6199 -0.4283 -0.6575
vn -0.3413 -0.2911 -0.8937
vn -0.6862 -0.4572 -0.5657
vn 0.6862 0.3309 -0.6477
vn -0.6199 -0.4283 -0.6575
vn -0.6992 -0.3404 0.6287
vn -0.6992 0.4626 0.5452
vn -0.6199 0.2837 -0.7316
vn -0.0000 -0.7842 -0.6205
vn -0.0000 0.6397 -0.7686
vn 0.6992 -0.3404 0.6287
vn -0.0000 -0.7419 0.6705
vn -0.0000 0.8641 0.5034
vn 0.6992 0.4626 0.5452
vn -0.0000 -0.2866 0.9581
vn -0.3327 -0.0955 0.9382
vn -0.3327 0.2866 0.8984
vn -0.0000 0.4777 0.8785
vn 0.3327 0.2866 0.8984
vn 0.3327 -0.0955 0.9382
vn -0.0000 0.1035 0.9946
vn 0.9140 0.1115 -0.3902
vn 0.3902 0.1115 -0.9140
vn 0.3762 0.2895 -0.8802
vn 0.8802 0.2895 -0.3762
vn -0.3902 0.1115 -0.9140
vn -0.3762 0.2895 -0.8802
vn 0.8802 0.2895 0.3762
vn 0.3762 0.2895 0.8802
vn 0.3902 0.1115 0.9140
vn 0.9140 0.1115 0.3902
vn -0.3762 0.2895 0.8802
vn -0.3902 0.1115 0.9140
vn -0.0479 0.9796 0.1954
vn -0.1958 0.9791 0.0550
vn -0.6431 0.7260 0.2436
vn -0.2405 0.7252 0.6452
vn 0.1958 0.9791 -0.0550
vn 0.0479 0.9796 -0.1954
vn -0.0550 0.9791 -0.1958
vn -0.1954 0.9796 -0.0479
vn 0.0550 0.9791 0.1958
vn 0.1954 0.9796 0.0479
vn 0.2405 0.7252 -0.6452
vn -0.2436 0.7260 -0.6431
vn 0.2436 0.7260 0.6431
vn 0.6452 0.7252 0.2405
vn 0.6431 0.7260 -0.2436
vn -0.6452 0.7252 -0.2405
vn -0.8802 0.2895 -0.3762
vn -0.8802 0.2895 0.3762
vn -0.9140 0.1115 0.3902
vn -0.9140 0.1115 -0.3902
vt -0.000000 0.500000
vt 1.000000 0.500000
vt 0.750000 0.490000
vt 1.000000 1.000000
vt -0.000000 1.000000
vt 0.957846 0.370000
vt 0.833333 0.500000
vt 0.833333 1.000000
vt 0.957846 0.130000
vt 0.666667 0.500000
vt 0.666667 1.000000
vt 0.500000 0.500000
vt 0.750000 0.010000
vt 0.500000 1.000000
vt 0.542154 0.130000
vt 0.333333 0.500000
vt 0.333333 1.000000
vt 0.542154 0.370000
vt 0.166667 0.500000
vt 0.166667 1.000000
vt 0.833333 1.000000
vt 1.000000 1.000000
vt -0.000000 1.000000
vt 0.666667 1.000000
vt 0.500000 1.000000
vt 0.333333 1.000000
vt 0.166667 1.000000
vt 0.254267 0.252464
vt 0.254267 0.247536
vt 0.250000 0.245073
vt 0.245733 0.247536
vt 0.245733 0.252464
vt 0.250000 0.254927
vt 0.833333 1.000000
vt 0.457846 0.370000
vt 1.000000 1.000000
vt 0.250000 0.490000
vt -0.000000 1.000000
vt 0.666667 1.000000
vt 0.457846 0.130000
vt 0.500000 1.000000
vt 0.250000 0.010000
vt 0.333333 1.000000
vt 0.042154 0.130000
vt 0.042154 0.370000
vt 0.166667 1.000000
vt 0.273710 0.263689
vt 0.250000 0.277378
vt 0.273710 0.236311
vt 0.250000 0.222622
vt 0.226290 0.236311
vt 0.226290 0.263689
vt 0.375000 0.243247
vt 0.375000 0.256753
vt 0.375000 0.493247
vt 0.375000 0.506753
vt 0.834308 0.700998
vt 0.832834 0.700822
vt 0.832834 0.707834
vt 0.824955 0.707834
vt 0.869913 0.734052
vt 0.625000 0.979838
vt 0.854838 0.750000
vt 0.625000 0.012350
vt 0.875000 0.729838
vt 0.625000 0.020162
vt 0.825822 0.542166
vt 0.825998 0.540692
vt 0.832834 0.550045
vt 0.832834 0.542166
vt 0.582834 0.257740
vt 0.586209 0.250989
vt 0.582834 0.242260
vt 0.625000 0.270162
vt 0.854838 0.500000
vt 0.625000 0.229838
vt 0.625000 0.262350
vt 0.875000 0.520162
vt 0.859052 0.505087
vt 0.674178 0.707834
vt 0.667166 0.707834
vt 0.667166 0.699955
vt 0.625000 0.770162
vt 0.625000 0.737650
vt 0.645162 0.750000
vt 0.630087 0.734052
vt 0.625000 0.729838
vt 0.667166 0.549178
vt 0.667166 0.542166
vt 0.675045 0.542166
vt 0.586209 0.499011
vt 0.582834 0.507740
vt 0.582834 0.492260
vt 0.625000 0.520162
vt 0.640948 0.505087
vt 0.625000 0.487650
vt 0.645162 0.500000
vt 0.625000 0.479838
vt 0.375000 0.993247
vt 0.375650 0.000000
vt 0.375000 0.006753
vt 0.375000 0.743247
vt 0.375000 0.756753
vt 0.582833 0.007740
vt 0.582834 0.992260
vt 0.582834 0.000000
vt 0.586209 0.000989
vt 0.582834 0.757740
vt 0.586209 0.749011
vt 0.582834 0.742260
vt 0.666667 0.635885
s 1
usemtl SecondaryColor
f 6/11/7 4/8/10 13/21/11 15/24/12
f 1/3/4 3/6/15 5/9/5 7/13/9 9/15/14 11/18/1
f 17/26/16 24/43/17 25/46/18 18/27/19
f 16/25/20 17/26/16 10/17/13 8/14/8
f 4/8/10 2/4/3 14/22/21 13/21/11
f 8/14/8 6/11/7 15/24/12 16/25/20
f 2/5/3 12/20/2 18/27/19 14/23/21
f 15/24/12 22/39/22 23/41/23 16/25/20
f 14/22/21 21/36/24 20/34/25 13/21/11
f 16/25/20 23/41/23 24/43/17 17/26/16
f 13/21/11 20/34/25 22/39/22 15/24/12
f 12/20/2 10/17/13 17/26/16 18/27/19
f 27/48/26 26/47/27 20/35/25 21/37/24
f 26/47/27 28/49/28 22/40/22 20/35/25
f 28/49/28 29/50/29 23/42/23 22/40/22
f 29/50/29 30/51/30 24/44/17 23/42/23
f 30/51/30 31/52/31 25/45/18 24/44/17
f 31/52/31 27/48/26 21/37/24 25/45/18
f 19/28/32 26/47/27 27/48/26
f 19/29/32 28/49/28 26/47/27
f 19/30/32 29/50/29 28/49/28
f 19/31/32 30/51/30 29/50/29
f 19/32/32 31/52/31 30/51/30
f 19/33/32 27/48/26 31/52/31
f 35/56/33 34/55/34 53/93/35 52/92/36
f 53/93/35 34/55/34 33/54/37 42/71/38
f 63/110/39 62/108/40 59/103/41 58/102/42
f 59/103/41 62/108/40 61/105/43 56/99/44
f 37/59/45 36/57/46 39/65/47 38/61/48
f 50/88/49 51/90/50 40/67/51 41/69/52 36/58/46 37/60/45 46/80/53 47/82/54
f 55/97/55 44/75/56 40/67/51 51/90/50
f 48/83/57 38/62/48 61/105/43 62/108/40
f 49/87/58 63/110/39 52/92/36 54/94/59
f 39/66/47 45/76/60 43/73/61 60/104/62
f 57/101/63 56/100/44 61/106/43 60/104/62
f 55/98/55 53/93/35 42/71/38 44/74/56
f 49/87/58 54/94/59 50/88/49 47/82/54
f 48/84/57 62/109/40 63/110/39 49/87/58
f 43/72/61 45/77/60 44/74/56 42/71/38
f 37/60/45 38/63/48 48/85/57 46/80/53
f 50/89/49 54/95/59 55/97/55 51/90/50
f 45/78/60 39/65/47 36/58/46 41/69/52
f 54/96/59 52/91/36 53/93/35 55/98/55
f 33/54/37 32/53/64 43/73/61 42/71/38
f 43/73/61 32/53/64 57/101/63 60/104/62
f 44/75/56 45/79/60 41/70/52 40/68/51
f 46/81/53 48/86/57 49/87/58 47/82/54
f 39/66/47 60/104/62 61/107/43 38/64/48
f 63/110/39 58/102/42 35/56/33 52/92/36
f 18/27/19 25/46/18 21/38/24 14/23/21
usemtl BaseColor
f 11/19/1 12/20/2 2/5/3 1/1/4
f 5/10/5 64/111/6 6/11/7 8/14/8 7/12/9
f 7/12/9 8/14/8 10/17/13 9/16/14
f 2/4/3 4/8/10 3/7/15 1/2/4
f 9/16/14 10/17/13 12/20/2 11/19/1
f 6/11/7 64/111/6 5/10/5 3/7/15 4/8/10
