# Blender 3.4.1
# www.blender.org
mtllib Crown.mtl
o Cylinder.006
v 0.096680 -0.047272 0.084607
v 0.056943 -0.047272 0.115164
v 0.008537 -0.047272 0.128189
v -0.041168 -0.047272 0.121698
v -0.084606 -0.047272 0.096680
v -0.115164 -0.047272 0.056943
v -0.128188 -0.047272 0.008537
v -0.121697 -0.047272 -0.041169
v -0.096679 -0.047272 -0.084607
v -0.056942 -0.047272 -0.115164
v -0.008536 -0.047272 -0.128189
v 0.041169 -0.047272 -0.121698
v 0.084607 -0.047272 -0.096679
v 0.115165 -0.047272 -0.056942
v 0.128189 -0.047272 -0.008537
v 0.121698 -0.047272 0.041169
v 0.071553 -0.001548 0.144713
v 0.121486 -0.002130 0.106315
v 0.010728 -0.001548 0.161079
v -0.051731 -0.002130 0.152923
v -0.106315 -0.001548 0.121486
v -0.144712 -0.001548 0.071553
v -0.161079 -0.002130 0.010727
v -0.152922 -0.001548 -0.051732
v -0.121485 -0.001548 -0.106315
v -0.071552 -0.002130 -0.144713
v -0.010727 -0.001548 -0.161079
v 0.051732 -0.001651 -0.152923
v 0.106316 -0.001548 -0.121485
v 0.144713 -0.002130 -0.071553
v 0.161080 -0.001548 -0.010727
v 0.152923 -0.001548 0.051732
v 0.148256 0.003418 0.050153
v 0.156163 0.003418 -0.010399
v 0.140296 0.003351 -0.069369
v 0.103071 0.003418 -0.117777
v 0.050153 0.002889 -0.148255
v -0.010399 0.003418 -0.156163
v -0.069368 0.003351 -0.140296
v -0.117777 0.003418 -0.103070
v -0.148255 0.003418 -0.050153
v -0.156162 0.003351 0.010400
v -0.140295 0.003418 0.069369
v -0.103070 0.003418 0.117778
v -0.050152 0.003351 0.148256
v 0.010400 0.003418 0.156163
v 0.117778 0.003351 0.103070
v 0.069369 0.003418 0.140296
v 0.121698 0.060308 0.041169
v 0.148256 0.055834 0.050153
v 0.128189 0.047623 -0.008537
v 0.156163 0.043150 -0.010399
v 0.115165 0.081799 -0.056942
v 0.140296 0.081799 -0.069369
v 0.084607 0.047623 -0.096679
v 0.103071 0.043150 -0.117777
v 0.041169 0.022558 -0.121698
v 0.050153 0.022558 -0.148255
v -0.008536 0.047623 -0.128189
v -0.010399 0.043150 -0.156163
v -0.056942 0.081799 -0.115164
v -0.069368 0.081799 -0.140296
v -0.096679 0.047623 -0.084607
v -0.117777 0.043150 -0.103070
v -0.121697 0.060308 -0.041169
v -0.148255 0.055834 -0.050153
v -0.128188 0.094363 0.008537
v -0.156162 0.094363 0.010400
v -0.115164 0.047623 0.056943
v -0.140295 0.043150 0.069369
v -0.084606 0.089116 0.096680
v -0.103070 0.084642 0.117778
v -0.041168 0.141080 0.121698
v -0.050152 0.141080 0.148256
v 0.008537 0.089116 0.128189
v 0.010400 0.084642 0.156163
v 0.056943 0.047623 0.115164
v 0.069369 0.043150 0.140296
v 0.117778 0.094363 0.103070
v 0.096680 0.094363 0.084607
v 0.118725 -0.047272 0.103899
v 0.121486 -0.041857 0.106315
v 0.071553 -0.041857 0.144713
v 0.069927 -0.047272 0.141424
v 0.010728 -0.041857 0.161079
v 0.010484 -0.047272 0.157419
v -0.051731 -0.041857 0.152923
v -0.050556 -0.047272 0.149448
v -0.106315 -0.041857 0.121486
v -0.103899 -0.047272 0.118725
v -0.144712 -0.041857 0.071553
v -0.141424 -0.047272 0.069927
v -0.161079 -0.041857 0.010727
v -0.157418 -0.047272 0.010483
v -0.152922 -0.041857 -0.051732
v -0.149447 -0.047272 -0.050556
v -0.121485 -0.041857 -0.106315
v -0.118724 -0.047272 -0.103899
v -0.071552 -0.041857 -0.144713
v -0.069926 -0.047272 -0.141424
v -0.010727 -0.041857 -0.161079
v -0.010483 -0.047272 -0.157419
v 0.051732 -0.041857 -0.152923
v 0.050557 -0.047272 -0.149447
v 0.106316 -0.041857 -0.121485
v 0.103900 -0.047272 -0.118724
v 0.144713 -0.041857 -0.071553
v 0.141425 -0.047272 -0.069927
v 0.161080 -0.041857 -0.010727
v 0.157419 -0.047272 -0.010483
v 0.152923 -0.041857 0.051732
v 0.149448 -0.047272 0.050556
vn 0.8665 -0.0000 0.4991
vn -0.0000 -1.0000 -0.0000
vn 0.6096 -0.0000 0.7927
vn 0.4503 0.6791 0.5797
vn -0.1295 -0.0000 0.9916
vn 0.7079 0.6791 -0.1941
vn -0.4991 -0.0000 0.8665
vn -0.5681 0.6975 0.4368
vn -0.7927 -0.0000 0.6096
vn -0.9657 -0.0000 0.2598
vn -0.9916 -0.0000 -0.1295
vn -0.4446 0.6791 -0.5840
vn -0.8665 -0.0000 -0.4991
vn -0.2598 -0.0000 -0.9657
vn -0.6096 -0.0000 -0.7927
vn 0.5840 0.6791 -0.4446
vn 0.1295 -0.0000 -0.9916
vn -0.3633 0.6791 0.6378
vn 0.4991 -0.0000 -0.8665
vn 0.7927 -0.0000 -0.6096
vn 0.9657 -0.0000 -0.2598
vn -0.6210 0.6975 -0.3577
vn 0.9916 -0.0000 0.1295
vn 0.2598 -0.0000 0.9657
vn 0.3468 0.7130 -0.6094
vn -0.7283 0.6791 -0.0915
vn 0.1862 0.6975 0.6920
vn 0.7106 0.6975 0.0928
vn -0.1941 0.6791 -0.7079
vn -0.7097 0.6791 0.1873
vn 0.0944 0.7130 -0.6948
vn 0.6343 0.6791 0.3694
vn -0.0986 0.6791 0.7274
vn 0.1126 0.7490 0.6530
vn -0.6329 0.7148 -0.2974
vn 0.3311 0.8354 -0.4387
vn 0.6063 0.7947 -0.0292
vn 0.2076 0.8346 0.5102
vn -0.4859 0.7490 0.4505
vn -0.2908 0.9224 -0.2541
vn 0.5102 0.8346 -0.2076
vn -0.0261 0.9629 -0.2686
vn 0.6835 0.7148 0.1479
vn -0.4640 0.7947 -0.3913
vn 0.0032 0.8354 -0.5496
vn -0.4747 0.8346 0.2794
vn 0.3853 0.9224 -0.0254
vn -0.2794 0.8346 -0.4747
vn 0.1838 0.9629 -0.1976
vn 0.5077 -0.5535 0.6602
vn 0.2164 -0.5535 0.8043
vn -0.1078 -0.5535 0.8259
vn -0.4157 -0.5535 0.7217
vn -0.6602 -0.5535 0.5077
vn -0.8043 -0.5535 0.2164
vn -0.8259 -0.5535 -0.1078
vn -0.7217 -0.5535 -0.4157
vn -0.5077 -0.5535 -0.6602
vn -0.2164 -0.5535 -0.8043
vn 0.1078 -0.5535 -0.8258
vn 0.4157 -0.5535 -0.7217
vn 0.6602 -0.5535 -0.5077
vn 0.8043 -0.5535 -0.2164
vn 0.8258 -0.5535 0.1078
vn 0.7217 -0.5535 0.4157
vt 0.750000 0.440995
vt 0.823091 0.426456
vt 0.885054 0.385054
vt 0.926456 0.323091
vt 0.940995 0.250000
vt 0.926456 0.176909
vt 0.885054 0.114946
vt 0.823091 0.073544
vt 0.750000 0.059005
vt 0.676910 0.073544
vt 0.614946 0.114946
vt 0.573544 0.176909
vt 0.559005 0.250000
vt 0.573544 0.323091
vt 0.614946 0.385054
vt 0.676909 0.426456
vt 0.937500 1.000000
vt 1.000000 1.000000
vt 0.000000 1.000000
vt 0.875000 1.000000
vt 0.812500 1.000000
vt 0.750000 1.000000
vt 0.687500 1.000000
vt 0.625000 1.000000
vt 0.562500 1.000000
vt 0.500000 1.000000
vt 0.437500 1.000000
vt 0.375000 1.000000
vt 0.312500 1.000000
vt 0.250000 1.000000
vt 0.187500 1.000000
vt 0.125000 1.000000
vt 0.062500 1.000000
vt 0.062500 1.000000
vt 0.125000 1.000000
vt 0.187500 1.000000
vt 0.250000 1.000000
vt 0.312500 1.000000
vt 0.375000 1.000000
vt 0.437500 1.000000
vt 0.500000 1.000000
vt 0.562500 1.000000
vt 0.625000 1.000000
vt 0.687500 1.000000
vt 0.750000 1.000000
vt 0.812500 1.000000
vt 0.875000 1.000000
vt 1.000000 1.000000
vt 0.000000 1.000000
vt 0.937500 1.000000
vt 0.176909 0.426456
vt 0.158156 0.471731
vt 0.062500 1.000000
vt 0.114946 0.385054
vt 0.125000 1.000000
vt 0.080294 0.419706
vt 0.073544 0.323091
vt 0.187500 1.000000
vt 0.028269 0.341844
vt 0.059005 0.250000
vt 0.010000 0.250000
vt 0.250000 1.000000
vt 0.073544 0.176909
vt 0.028269 0.158156
vt 0.312500 1.000000
vt 0.114946 0.114946
vt 0.080294 0.080294
vt 0.375000 1.000000
vt 0.176909 0.073544
vt 0.158156 0.028269
vt 0.437500 1.000000
vt 0.250000 0.059005
vt 0.250000 0.010000
vt 0.500000 1.000000
vt 0.323091 0.073544
vt 0.341844 0.028269
vt 0.562500 1.000000
vt 0.385054 0.114946
vt 0.419706 0.080294
vt 0.625000 1.000000
vt 0.426456 0.176909
vt 0.471731 0.158156
vt 0.687500 1.000000
vt 0.440995 0.250000
vt 0.490000 0.250000
vt 0.750000 1.000000
vt 0.426456 0.323091
vt 0.471731 0.341844
vt 0.812500 1.000000
vt 0.385054 0.385054
vt 0.419706 0.419706
vt 0.875000 1.000000
vt 0.323091 0.426456
vt 0.341844 0.471731
vt 0.937500 1.000000
vt 1.000000 1.000000
vt 0.250000 0.490000
vt 0.000000 1.000000
vt 0.250000 0.440995
vt 0.750000 0.484546
vt 0.000000 0.516029
vt 1.000000 0.516029
vt 0.750000 0.490000
vt 0.937500 0.516029
vt 0.841844 0.471731
vt 0.839757 0.466692
vt 0.875000 0.516029
vt 0.919706 0.419706
vt 0.915849 0.415849
vt 0.812500 0.516029
vt 0.971731 0.341844
vt 0.966692 0.339757
vt 0.750000 0.516029
vt 0.990000 0.250000
vt 0.984546 0.250000
vt 0.687500 0.516029
vt 0.971731 0.158156
vt 0.966692 0.160243
vt 0.625000 0.516029
vt 0.919706 0.080294
vt 0.915849 0.084151
vt 0.562500 0.516029
vt 0.841844 0.028269
vt 0.839757 0.033308
vt 0.500000 0.516029
vt 0.750000 0.010000
vt 0.750000 0.015454
vt 0.437500 0.516029
vt 0.658156 0.028269
vt 0.660243 0.033308
vt 0.375000 0.516029
vt 0.580294 0.080294
vt 0.584151 0.084151
vt 0.312500 0.516029
vt 0.528269 0.158156
vt 0.533308 0.160243
vt 0.250000 0.516029
vt 0.510000 0.250000
vt 0.515454 0.250000
vt 0.187500 0.516029
vt 0.528269 0.341844
vt 0.533308 0.339757
vt 0.125000 0.516029
vt 0.580294 0.419706
vt 0.584151 0.415849
vt 0.062500 0.516029
vt 0.658156 0.471731
vt 0.660243 0.466692
s 0
f 111/146/1 32/33/1 18/19/1 82/101/1
f 3/3/2 2/2/2 84/106/2 86/109/2
f 4/4/2 3/3/2 86/109/2 88/112/2
f 5/5/2 4/4/2 88/112/2 90/115/2
f 6/6/2 5/5/2 90/115/2 92/118/2
f 7/7/2 6/6/2 92/118/2 94/121/2
f 8/8/2 7/7/2 94/121/2 96/124/2
f 9/9/2 8/8/2 96/124/2 98/127/2
f 10/10/2 9/9/2 98/127/2 100/130/2
f 11/11/2 10/10/2 100/130/2 102/133/2
f 12/12/2 11/11/2 102/133/2 104/136/2
f 13/13/2 12/12/2 104/136/2 106/139/2
f 14/14/2 13/13/2 106/139/2 108/142/2
f 15/15/2 14/14/2 108/142/2 110/145/2
f 16/16/2 15/15/2 110/145/2 112/148/2
f 1/1/2 16/16/2 112/148/2 81/100/2
f 10/10/3 61/69/3 63/72/3 9/9/3
f 82/102/3 18/18/3 17/17/3 83/104/3
f 17/17/4 18/18/4 47/48/4 48/50/4
f 85/107/5 19/20/5 20/21/5 87/110/5
f 31/32/6 30/31/6 35/36/6 34/35/6
f 87/110/7 20/21/7 21/22/7 89/113/7
f 22/23/8 21/22/8 44/45/8 43/44/8
f 89/113/9 21/22/9 22/23/9 91/116/9
f 91/116/10 22/23/10 23/24/10 93/119/10
f 93/119/11 23/24/11 24/25/11 95/122/11
f 26/27/12 25/26/12 40/41/12 39/40/12
f 95/122/13 24/25/13 25/26/13 97/125/13
f 3/3/14 75/90/14 77/93/14 2/2/14
f 97/125/15 25/26/15 26/27/15 99/128/15
f 99/128/14 26/27/14 27/28/14 101/131/14
f 30/31/16 29/30/16 36/37/16 35/36/16
f 101/131/17 27/28/17 28/29/17 103/134/17
f 21/22/18 20/21/18 45/46/18 44/45/18
f 103/134/19 28/29/19 29/30/19 105/137/19
f 105/137/20 29/30/20 30/31/20 107/140/20
f 107/140/21 30/31/21 31/32/21 109/143/21
f 25/26/22 24/25/22 41/42/22 40/41/22
f 109/143/23 31/32/23 32/33/23 111/146/23
f 83/104/24 17/17/24 19/20/24 85/107/24
f 29/30/25 28/29/25 37/38/25 36/37/25
f 16/16/11 49/51/11 51/54/11 15/15/11
f 35/36/20 36/37/20 56/62/20 54/58/20
f 2/2/15 77/93/15 80/99/15 1/1/15
f 24/25/26 23/24/26 42/43/26 41/42/26
f 11/11/24 59/66/24 61/69/24 10/10/24
f 42/43/10 43/44/10 70/83/10 68/80/10
f 34/35/21 35/36/21 54/58/21 52/55/21
f 19/20/27 17/17/27 48/50/27 46/47/27
f 32/33/28 31/32/28 34/35/28 33/34/28
f 44/45/7 45/46/7 74/89/7 72/86/7
f 48/50/3 47/48/3 79/96/3 78/95/3
f 40/41/13 41/42/13 66/77/13 64/74/13
f 4/4/17 73/87/17 75/90/17 3/3/17
f 12/12/5 57/63/5 59/66/5 11/11/5
f 69/81/20 71/84/20 5/5/20 6/6/20
f 71/84/19 73/87/19 4/4/19 5/5/19
f 33/34/23 34/35/23 52/55/23 50/53/23
f 27/28/29 26/27/29 39/40/29 38/39/29
f 23/24/30 22/23/30 43/44/30 42/43/30
f 28/29/31 27/28/31 38/39/31 37/38/31
f 18/19/32 32/33/32 33/34/32 47/49/32
f 20/21/33 19/20/33 46/47/33 45/46/33
f 69/81/34 67/78/34 68/79/34 70/82/34
f 73/87/35 71/84/35 72/85/35 74/88/35
f 49/51/36 80/99/36 79/97/36 50/52/36
f 77/93/37 75/90/37 76/91/37 78/94/37
f 53/57/38 51/54/38 52/56/38 54/59/38
f 80/99/39 77/93/39 78/94/39 79/97/39
f 57/63/40 55/60/40 56/61/40 58/64/40
f 61/69/41 59/66/41 60/67/41 62/70/41
f 65/75/42 63/72/42 64/73/42 66/76/42
f 75/90/43 73/87/43 74/88/43 76/91/43
f 71/84/44 69/81/44 70/82/44 72/85/44
f 67/78/45 65/75/45 66/76/45 68/79/45
f 63/72/46 61/69/46 62/70/46 64/73/46
f 59/66/47 57/63/47 58/64/47 60/67/47
f 55/60/48 53/57/48 54/59/48 56/61/48
f 51/54/49 49/51/49 50/52/49 52/56/49
f 1/1/13 80/99/13 49/51/13 16/16/13
f 36/37/19 37/38/19 58/65/19 56/62/19
f 53/57/9 55/60/9 13/13/9 14/14/9
f 9/9/1 63/72/1 65/75/1 8/8/1
f 45/46/5 46/47/5 76/92/5 74/89/5
f 37/38/17 38/39/17 60/68/17 58/65/17
f 47/49/1 33/34/1 50/53/1 79/98/1
f 65/75/23 67/78/23 7/7/23 8/8/23
f 51/54/10 53/57/10 14/14/10 15/15/10
f 38/39/14 39/40/14 62/71/14 60/68/14
f 55/60/7 57/63/7 12/12/7 13/13/7
f 41/42/11 42/43/11 68/80/11 66/77/11
f 7/7/21 67/78/21 69/81/21 6/6/21
f 46/47/24 48/50/24 78/95/24 76/92/24
f 43/44/9 44/45/9 72/86/9 70/83/9
f 39/40/15 40/41/15 64/74/15 62/71/15
f 82/103/50 83/105/50 84/106/50 81/100/50
f 83/105/51 85/108/51 86/109/51 84/106/51
f 85/108/52 87/111/52 88/112/52 86/109/52
f 87/111/53 89/114/53 90/115/53 88/112/53
f 89/114/54 91/117/54 92/118/54 90/115/54
f 91/117/55 93/120/55 94/121/55 92/118/55
f 93/120/56 95/123/56 96/124/56 94/121/56
f 95/123/57 97/126/57 98/127/57 96/124/57
f 97/126/58 99/129/58 100/130/58 98/127/58
f 99/129/59 101/132/59 102/133/59 100/130/59
f 101/132/60 103/135/60 104/136/60 102/133/60
f 103/135/61 105/138/61 106/139/61 104/136/61
f 105/138/62 107/141/62 108/142/62 106/139/62
f 107/141/63 109/144/63 110/145/63 108/142/63
f 109/144/64 111/147/64 112/148/64 110/145/64
f 111/147/65 82/103/65 81/100/65 112/148/65
f 2/2/2 1/1/2 81/100/2 84/106/2
