# Blender 3.6.2
# www.blender.org
mtllib Tube_Block.mtl
o Torus.004
v 0.429554 0.000002 -0.010972
v 0.344026 0.078235 -0.011751
v 0.403948 -0.092759 -0.003605
v 0.011173 0.002418 0.428569
v 0.004062 -0.092769 0.403908
v -0.403918 -0.092757 0.003583
v -0.428637 0.002018 0.010962
v -0.344867 0.076071 0.011671
v -0.221030 0.073738 0.005430
v 0.011420 0.075913 0.344992
v 0.005126 0.073900 0.221004
v -0.002960 -0.058174 0.137186
v 0.220994 0.073730 -0.005417
v 0.137159 -0.058110 0.002873
v -0.003117 -0.092743 -0.403958
v -0.010753 -0.000400 -0.429621
v -0.012025 0.078398 -0.343900
v -0.005731 0.073560 -0.221019
v 0.002712 -0.058051 -0.137126
v -0.137153 -0.058116 -0.002801
v 0.204774 -0.000942 -0.377888
v 0.366222 -0.000790 -0.224935
v 0.224762 0.001501 0.365303
v 0.377573 0.000619 0.204232
v 0.305084 0.077960 0.160613
v 0.183976 0.077120 0.292003
v 0.351268 -0.092757 0.199527
v 0.204567 -0.092764 0.348340
v -0.199397 -0.092762 0.351308
v -0.348427 -0.092754 0.204398
v -0.203747 0.002500 0.376898
v -0.364959 0.002349 0.224472
v -0.351023 -0.092730 -0.199953
v -0.203890 -0.092722 -0.348767
v -0.224649 0.000053 -0.365883
v -0.377223 0.000935 -0.204285
v -0.184128 0.078182 -0.291323
v -0.305362 0.077340 -0.160520
v -0.161145 0.076049 0.305671
v -0.292311 0.076107 0.184200
v -0.105054 0.073118 0.194127
v -0.188000 0.073059 0.115685
v 0.115571 0.073118 0.188033
v 0.194144 0.073060 0.104976
v 0.118341 -0.059172 0.069392
v 0.067763 -0.059172 0.119292
v 0.200075 -0.092724 -0.350986
v 0.348672 -0.092734 -0.204074
v 0.291018 0.079185 -0.183889
v 0.159978 0.079246 -0.304774
v 0.187856 0.072897 -0.115877
v 0.104661 0.072833 -0.194341
v -0.116002 0.072828 -0.187815
v -0.194326 0.072890 -0.104736
v -0.118410 -0.059172 -0.069203
v -0.067973 -0.059172 -0.119109
v -0.069398 -0.059172 0.118345
v -0.119232 -0.059172 0.067838
v 0.119173 -0.059172 -0.067894
v 0.069198 -0.059172 -0.118406
vn 0.0061 -0.2522 0.9677
vn 0.4854 -0.2547 0.8364
vn 0.5064 0.2653 0.8205
vn 0.0269 0.2698 0.9625
vn 0.8365 -0.2622 0.4812
vn 0.9639 -0.2663 -0.0044
vn 0.9666 0.2549 -0.0268
vn 0.8505 0.2582 0.4583
vn 0.4800 -0.2711 -0.8343
vn -0.0052 -0.2683 -0.9633
vn -0.0272 0.2528 -0.9671
vn 0.4593 0.2491 -0.8527
vn 0.3974 0.9175 -0.0137
vn 0.3509 0.9178 0.1860
vn 0.2103 0.9180 0.3362
vn 0.0132 0.9182 0.3959
vn -0.2239 0.9019 -0.3695
vn -0.0090 0.9046 -0.4263
vn -0.9672 -0.2541 0.0069
vn -0.8368 -0.2494 0.4874
vn -0.8189 0.2709 0.5059
vn -0.9631 0.2677 0.0273
vn -0.3351 0.9183 0.2109
vn -0.3962 0.9180 0.0147
vn -0.4848 -0.2626 -0.8343
vn -0.5079 0.2569 -0.8222
vn -0.2128 0.9176 -0.3358
vn -0.0153 0.9174 -0.3976
vn -0.4564 0.2701 0.8478
vn -0.1851 0.9183 0.3499
vn 0.2238 0.8994 0.3756
vn 0.0073 0.8993 0.4372
vn 0.2062 0.9034 -0.3760
vn -0.8379 -0.2597 -0.4800
vn -0.8501 0.2608 -0.4575
vn -0.0011 0.5345 -0.8451
vn 0.4183 0.5343 -0.7345
vn -0.4361 0.8999 0.0097
vn -0.3837 0.8996 -0.2085
vn 0.4274 0.9040 -0.0065
vn 0.3674 0.9037 -0.2198
vn 0.7295 0.5356 -0.4254
vn 0.8446 0.5354 -0.0022
vn -0.8448 0.5351 0.0015
vn -0.7344 0.5344 -0.4184
vn -0.4811 -0.2510 0.8399
vn -0.3517 0.9178 -0.1842
vn 0.1849 0.9174 -0.3524
vn 0.8237 0.2514 -0.5083
vn 0.3366 0.9174 -0.2121
vn 0.3802 0.9006 0.2107
vn -0.3776 0.8975 0.2278
vn -0.7291 0.5361 0.4254
vn 0.7346 0.5353 0.4169
vn -0.2129 0.8968 0.3879
vn -0.4249 0.5352 -0.7301
vn 0.4259 0.5365 0.7285
vn 0.0027 0.5360 0.8442
vn -0.4170 0.5354 0.7345
vn 0.8337 -0.2680 -0.4828
vt 0.250000 0.375000
vt 0.363493 0.375000
vt 0.364298 0.500000
vt 0.250000 0.500000
vt 0.386507 0.375000
vt 0.500000 0.375000
vt 0.500000 0.500000
vt 0.385702 0.500000
vt 0.636508 0.375000
vt 0.750000 0.375000
vt 0.750000 0.500000
vt 0.635702 0.500000
vt 0.500000 0.625000
vt 0.387195 0.625000
vt 0.362805 0.625000
vt 0.250000 0.625000
vt 0.357299 0.750000
vt 0.250000 0.750000
vt 0.000000 0.375000
vt 0.113493 0.375000
vt 0.114298 0.500000
vt 0.000000 0.500000
vt 0.112805 0.625000
vt 0.000000 0.625000
vt 0.863493 0.375000
vt 0.864298 0.500000
vt 0.864298 0.500000
vt 0.862805 0.625000
vt 0.750000 0.625000
vt 0.135702 0.500000
vt 0.137195 0.625000
vt 0.862805 0.625000
vt 0.857299 0.750000
vt 0.750000 0.750000
vt 0.137195 0.625000
vt 0.142701 0.750000
vt 0.886507 0.375000
vt 1.000000 0.375000
vt 1.000000 0.500000
vt 0.885702 0.500000
vt 0.250000 0.875000
vt 0.149880 0.875000
vt 0.500000 0.750000
vt 0.392701 0.750000
vt 0.000000 0.750000
vt 0.107299 0.750000
vt 0.100120 0.875000
vt 0.000000 0.875000
vt 0.392701 0.750000
vt 0.500000 0.875000
vt 0.399880 0.875000
vt 0.136507 0.375000
vt 0.135702 0.500000
vt 1.000000 0.625000
vt 0.887195 0.625000
vt 0.635702 0.500000
vt 0.637195 0.625000
vt 0.614298 0.500000
vt 0.612805 0.625000
vt 1.000000 0.750000
vt 0.892701 0.750000
vt 0.612805 0.625000
vt 0.607299 0.750000
vt 0.112805 0.625000
vt 0.107299 0.750000
vt 0.607299 0.750000
vt 0.600120 0.875000
vt 0.892701 0.750000
vt 1.000000 0.875000
vt 0.899880 0.875000
vt 0.637195 0.625000
vt 0.642701 0.750000
vt 0.357299 0.750000
vt 0.350120 0.875000
vt 0.850120 0.875000
vt 0.750000 0.875000
vt 0.642701 0.750000
vt 0.649880 0.875000
vt 0.613492 0.375000
s 1
usemtl BuoyPrimary
f 5/1/1 28/2/2 23/3/3 4/4/4
f 27/5/5 3/6/6 1/7/7 24/8/8
f 47/9/9 15/10/10 16/11/11 21/12/12
f 24/8/8 1/7/7 2/13/13 25/14/14
f 4/4/4 23/3/3 26/15/15 10/16/16
f 10/16/16 26/15/15 43/17/17 11/18/18
f 6/19/19 30/20/20 32/21/21 7/22/22
f 7/22/22 32/21/21 40/23/23 8/24/24
f 15/10/10 34/25/25 35/26/26 16/11/11
f 16/11/11 35/27/26 37/28/27 17/29/28
f 31/30/29 4/4/4 10/16/16 39/31/30
f 17/29/28 37/32/27 53/33/31 18/34/32
f 39/35/30 10/16/16 11/18/18 41/36/33
f 33/37/34 6/38/19 7/39/22 36/40/35
f 41/36/33 11/18/18 12/41/36 57/42/37
f 25/14/14 2/13/13 13/43/38 44/44/39
f 9/45/40 42/46/41 58/47/42 20/48/43
f 44/49/39 13/43/38 14/50/44 45/51/45
f 29/52/46 5/1/1 4/4/4 31/53/29
f 36/40/35 7/39/22 8/54/24 38/55/47
f 21/56/12 16/11/11 17/29/28 50/57/48
f 1/7/7 22/58/49 49/59/50 2/13/13
f 38/55/47 8/54/24 9/60/40 54/61/51
f 2/13/13 49/62/50 51/63/52 13/43/38
f 8/24/24 40/64/23 42/65/41 9/45/40
f 13/43/38 51/66/52 59/67/53 14/50/44
f 54/68/51 9/60/40 20/69/43 55/70/54
f 50/71/48 17/29/28 18/34/32 52/72/55
f 11/18/18 43/73/17 46/74/56 12/41/36
f 18/34/32 53/33/31 56/75/57 19/76/58
f 52/77/55 18/34/32 19/76/58 60/78/59
f 3/6/6 48/79/60 22/58/49 1/7/7
usemtl BuoySecondary
f 24/8/8 25/14/14 26/15/15 23/3/3
f 23/3/3 28/2/2 27/5/5 24/8/8
f 32/21/21 30/20/20 29/52/46 31/53/29
f 31/30/29 39/31/30 40/23/23 32/21/21
f 39/35/30 41/36/33 42/65/41 40/64/23
f 44/49/39 45/51/45 46/74/56 43/73/17
f 25/14/14 44/44/39 43/17/17 26/15/15
f 22/58/49 48/79/60 47/9/9 21/12/12
f 54/68/51 55/70/54 56/75/57 53/33/31
f 38/55/47 54/61/51 53/33/31 37/32/27
f 41/36/33 57/42/37 58/47/42 42/46/41
f 52/77/55 60/78/59 59/67/53 51/66/52
f 50/71/48 52/72/55 51/63/52 49/62/50
f 21/56/12 50/57/48 49/59/50 22/58/49
f 36/40/35 38/55/47 37/28/27 35/27/26
f 35/26/26 34/25/25 33/37/34 36/40/35
