# Blender 3.6.2
# www.blender.org
mtllib EnemyShipBase.mtl
o Cube.026
v 0.147080 0.003007 -0.403532
v 0.123330 -0.078857 -0.346776
v 0.062094 0.003007 0.426620
v 0.047131 -0.078857 0.353371
v -0.147080 0.003007 -0.403532
v -0.123330 -0.078857 -0.346776
v -0.062094 0.003007 0.426620
v -0.047131 -0.078857 0.353371
v 0.175327 0.003007 0.353232
v 0.243949 0.003007 0.246646
v 0.255116 0.003007 0.153266
v 0.255116 0.003007 -0.290251
v 0.232217 0.003007 -0.353054
v 0.185192 -0.078857 -0.317857
v 0.201444 -0.078857 -0.290251
v 0.201444 -0.078857 0.153266
v 0.190604 -0.078857 0.207010
v 0.142560 -0.078857 0.290622
v -0.232217 0.003007 -0.353054
v -0.255116 0.003007 -0.290251
v -0.255116 0.003007 0.153266
v -0.241677 0.003007 0.246646
v -0.175327 0.003007 0.353233
v -0.142560 -0.078857 0.290622
v -0.195148 -0.078857 0.207010
v -0.201444 -0.078857 0.153266
v -0.201444 -0.078857 -0.290251
v -0.185192 -0.078857 -0.317857
v 0.198295 0.029843 -0.326086
v 0.134355 0.029843 -0.363075
v -0.049405 0.029843 0.386162
v 0.049405 0.029843 0.386162
v -0.146522 0.029843 0.324974
v -0.134355 0.029843 -0.363075
v 0.146522 0.029843 0.324974
v 0.204023 0.029843 0.231977
v 0.213577 0.029843 0.153266
v 0.212757 0.029843 -0.290251
v -0.198295 0.029843 -0.326086
v -0.212757 0.029843 -0.290251
v -0.213577 0.029843 0.153266
v -0.204023 0.029843 0.231977
v 0.232217 0.029843 -0.353054
v 0.147080 0.029843 -0.403532
v -0.062094 0.029843 0.426620
v 0.062094 0.029843 0.426620
v -0.175327 0.029843 0.353233
v -0.147080 0.029843 -0.403532
v 0.175327 0.029843 0.353232
v 0.243949 0.029843 0.246646
v 0.255116 0.029843 0.153266
v 0.255116 0.029843 -0.290251
v -0.232217 0.029843 -0.353054
v -0.255116 0.029843 -0.290251
v -0.255116 0.029843 0.153266
v -0.241677 0.029843 0.246646
v 0.195999 -0.029336 -0.321690
v 0.132800 -0.029336 -0.358250
v -0.048833 -0.029336 0.381177
v 0.048833 -0.029336 0.381177
v -0.144826 -0.029336 0.320808
v -0.132800 -0.029336 -0.358250
v 0.144826 -0.029336 0.320808
v 0.201661 -0.029336 0.229726
v 0.170435 -0.029336 0.104299
v 0.170435 -0.029336 -0.236274
v -0.195999 -0.029336 -0.321690
v -0.170435 -0.029336 -0.236274
v -0.170435 -0.029336 0.104299
v -0.201661 -0.029336 0.229726
v 0.211104 -0.029336 0.153266
v 0.210294 -0.029336 -0.290251
v -0.210294 -0.029336 -0.290251
v -0.211104 -0.029336 0.153266
v 0.097629 0.044951 0.031502
v 0.097629 0.044951 -0.163478
v -0.097629 0.044951 -0.163478
v -0.097629 0.044951 0.031502
v 0.150303 0.044951 0.084185
v 0.150303 0.044951 -0.216160
v -0.150303 0.044951 -0.216160
v -0.150303 0.044951 0.084185
v 0.011375 0.136101 -0.054629
v 0.011375 0.136101 -0.077346
v -0.011375 0.136101 -0.077346
v -0.011375 0.136101 -0.054629
v -0.000000 -0.029336 -0.290251
v -0.000000 0.003007 -0.403532
v -0.000000 -0.078857 -0.346776
v -0.000000 0.029843 -0.403532
v -0.000000 0.029843 -0.363075
v 0.000000 -0.029336 -0.358250
v -0.000000 0.003007 0.426620
v -0.000000 -0.078857 0.353371
v -0.000000 0.029843 0.426620
v -0.000000 0.029843 0.386162
v -0.000000 -0.029336 0.381177
v 0.000000 -0.029336 0.153266
vn 0.6652 -0.3282 0.6707
vn 0.2638 -0.3413 0.9022
vn 0.2198 -0.6736 0.7057
vn 0.5689 -0.6381 0.5189
vn -0.0000 -0.3569 0.9341
vn -0.2638 -0.3413 0.9022
vn -0.2198 -0.6736 0.7057
vn -0.0000 -0.6668 0.7452
vn -0.7270 -0.2877 -0.6234
vn -0.2502 -0.2925 -0.9230
vn -0.1865 -0.5833 -0.7906
vn -0.5899 -0.5817 -0.5600
vn -0.0000 -0.2985 -0.9544
vn 0.2502 -0.2925 -0.9230
vn 0.1865 -0.5833 -0.7906
vn -0.0000 -0.5698 -0.8218
vn -0.2159 0.6485 0.7300
vn -0.5353 0.6612 0.5256
vn -0.6684 -0.3237 0.6697
vn 0.9556 -0.2880 0.0624
vn 0.7187 0.6940 0.0428
vn 0.7070 0.6599 0.2545
vn 0.8931 -0.3031 0.3323
vn 0.5303 0.6627 0.5287
vn 0.2159 0.6485 0.7300
vn -0.0000 0.7071 0.7071
vn -0.7027 0.6637 0.2564
vn -0.8949 -0.2935 0.3361
vn -0.5722 -0.6287 0.5267
vn -0.7799 -0.5723 0.2532
vn -0.9576 -0.2804 0.0659
vn -0.8371 -0.5441 0.0572
vn -0.9439 -0.2809 -0.1738
vn -0.8119 -0.5545 -0.1830
vn 0.7270 -0.2877 -0.6234
vn 0.5899 -0.5817 -0.5600
vn 0.9439 -0.2809 -0.1738
vn 0.8119 -0.5545 -0.1830
vn 0.8279 -0.5573 0.0633
vn 0.7630 -0.5935 0.2561
vn 0.1650 0.7998 -0.5771
vn 0.2050 0.6803 -0.7037
vn 0.5189 0.6850 -0.5114
vn 0.4395 0.7828 -0.4405
vn -0.5922 0.6387 -0.4914
vn -0.2004 0.6522 -0.7311
vn 0.2004 0.6522 -0.7311
vn 0.5922 0.6387 -0.4914
vn 0.7311 0.6700 -0.1291
vn -0.7311 0.6700 -0.1291
vn -0.7206 0.6914 0.0516
vn -0.0000 0.7071 -0.7071
vn -0.4386 0.8081 0.3933
vn -0.1573 0.7960 0.5845
vn -0.0000 0.7362 -0.6768
vn -0.1650 0.7998 -0.5771
vn -0.0000 0.7353 0.6778
vn 0.1573 0.7960 0.5845
vn -0.4395 0.7828 -0.4405
vn -0.5954 0.7750 -0.2119
vn -0.6762 0.7356 -0.0405
vn -0.6275 0.7680 0.1284
vn 0.4386 0.8081 0.3933
vn 0.6275 0.7680 0.1284
vn 0.6762 0.7356 -0.0405
vn 0.5954 0.7750 -0.2119
vn -0.1885 0.6845 0.7042
vn -0.0000 1.0000 -0.0000
vn -0.7184 0.6796 0.1486
vn -0.5575 0.6715 0.4880
vn 0.7184 0.6796 0.1486
vn 0.5575 0.6715 0.4880
vn 0.7045 0.7084 -0.0424
vn -0.5189 0.6850 -0.5114
vn -0.2050 0.6803 -0.7037
vn 0.6919 0.6805 -0.2414
vn -0.6919 0.6805 -0.2414
vn -0.7045 0.7084 -0.0424
vn 0.1885 0.6845 0.7042
vn -0.3110 0.8980 0.3113
vn 0.3110 0.8980 0.3113
vn 0.3110 0.8980 -0.3113
vn -0.3110 0.8980 -0.3113
vn 0.2231 0.9489 0.2230
vn 0.2231 0.9489 -0.2230
vn -0.2231 0.9489 -0.2230
vn -0.2231 0.9489 0.2230
vn 0.1149 0.9867 0.1149
vn -0.1149 0.9867 0.1149
vn 0.4967 0.7117 -0.4968
vn 0.4967 0.7117 0.4968
vn -0.1149 0.9867 -0.1149
vn 0.1149 0.9867 -0.1149
vn -0.4967 0.7117 0.4968
vn -0.4967 0.7117 -0.4968
vt 0.712241 0.450901
vt 0.706490 0.366079
vt 0.634640 0.383991
vt 0.640328 0.464761
vt 0.741072 0.279530
vt 0.752485 0.237813
vt 0.677996 0.220722
vt 0.666493 0.252720
vt 0.645648 0.663546
vt 0.640943 0.726121
vt 0.709104 0.729961
vt 0.711822 0.681050
vt 0.814190 0.008812
vt 0.805698 0.107355
vt 0.873646 0.102650
vt 0.883533 0.016798
vt 0.770922 0.240256
vt 0.772974 0.149602
vt 0.755128 0.150675
vt 0.688358 0.595177
vt 0.707170 0.599876
vt 0.722567 0.535879
vt 0.704366 0.532874
vt 0.730290 0.450972
vt 0.723651 0.362718
vt 0.760753 0.284447
vt 0.761695 0.067942
vt 0.744533 0.071400
vt 0.683235 0.138542
vt 0.676980 0.069949
vt 0.729083 0.011599
vt 0.666493 0.034610
vt 0.334621 0.622487
vt 0.334621 0.322095
vt 0.268321 0.322095
vt 0.268321 0.622487
vt 0.659374 0.619979
vt 0.718990 0.658576
vt 0.811681 0.169099
vt 0.876399 0.151092
vt 0.825264 0.210682
vt 0.883533 0.173024
vt 0.385441 0.322095
vt 0.385441 0.622487
vt 0.451741 0.622487
vt 0.451741 0.322095
vt 0.632880 0.533267
vt 0.623335 0.570942
vt 0.566673 0.780850
vt 0.606845 0.778779
vt 0.605697 0.701984
vt 0.565515 0.703115
vt 0.627555 0.660456
vt 0.623335 0.726489
vt 0.787443 0.107730
vt 0.794639 0.172933
vt 0.367266 0.322095
vt 0.367266 0.622487
vt 0.640253 0.614345
vt 0.807963 0.216031
vt 0.352797 0.622487
vt 0.352797 0.322095
vt 0.795083 0.007234
vt 0.746351 0.007234
vt 0.870067 0.366369
vt 0.845345 0.350547
vt 0.831672 0.416174
vt 0.860389 0.415454
vt 0.744759 0.555138
vt 0.763279 0.575334
vt 0.794275 0.546909
vt 0.769421 0.532522
vt 0.789889 0.707615
vt 0.817204 0.706695
vt 0.794275 0.618227
vt 0.769421 0.632614
vt 0.898002 0.186684
vt 0.923927 0.195558
vt 0.956187 0.101309
vt 0.927471 0.100590
vt 0.817204 0.458441
vt 0.789889 0.457522
vt 0.802666 0.373823
vt 0.776021 0.384778
vt 0.765494 0.322099
vt 0.744759 0.341114
vt 0.651469 0.007234
vt 0.623335 0.007234
vt 0.623335 0.307626
vt 0.652024 0.307626
vt 0.889857 0.349242
vt 0.880566 0.322099
vt 0.942514 0.035683
vt 0.917793 0.051505
vt 0.907293 0.007234
vt 0.898002 0.034378
vt 0.520796 0.622487
vt 0.549485 0.622487
vt 0.549485 0.322095
vt 0.521351 0.322095
vt 0.744759 0.824023
vt 0.765494 0.843038
vt 0.801532 0.790273
vt 0.776021 0.780359
vt 0.890126 0.863964
vt 0.800182 0.863964
vt 0.800182 0.910019
vt 0.942613 0.910019
vt 0.932931 0.888726
vt 0.944304 0.322099
vt 0.904326 0.325428
vt 0.905866 0.348768
vt 0.946084 0.348211
vt 0.944526 0.503667
vt 0.904326 0.504742
vt 0.906730 0.594654
vt 0.946958 0.594633
vt 0.506327 0.322095
vt 0.466210 0.322098
vt 0.466210 0.622490
vt 0.506326 0.622487
vt 0.565515 0.433233
vt 0.605697 0.434364
vt 0.606845 0.357569
vt 0.566673 0.355498
vt 0.566741 0.629071
vt 0.606883 0.629280
vt 0.608866 0.577138
vt 0.568787 0.575408
vt 0.566741 0.507277
vt 0.606883 0.507068
vt 0.568787 0.560939
vt 0.608866 0.559210
vt 0.568749 0.307627
vt 0.608866 0.307630
vt 0.608866 0.007238
vt 0.568749 0.007234
vt 0.905866 0.644098
vt 0.946084 0.644655
vt 0.904326 0.667438
vt 0.944304 0.670767
vt 0.568717 0.814249
vt 0.608866 0.811792
vt 0.906730 0.398212
vt 0.946958 0.398233
vt 0.718990 0.992766
vt 0.712595 0.940980
vt 0.674100 0.879290
vt 0.609085 0.838403
vt 0.576011 0.838403
vt 0.576011 0.992766
vt 0.389844 0.758552
vt 0.401771 0.756541
vt 0.402103 0.743671
vt 0.388359 0.745476
vt 0.526735 0.274461
vt 0.554280 0.307626
vt 0.553731 0.007234
vt 0.526735 0.043793
vt 0.295866 0.043793
vt 0.268870 0.007234
vt 0.268321 0.307626
vt 0.295866 0.274461
vt 0.411301 0.007234
vt 0.468535 0.818777
vt 0.322158 0.821932
vt 0.065557 0.619793
vt 0.112548 0.593432
vt 0.061114 0.396620
vt 0.007234 0.396620
vt 0.321352 0.675020
vt 0.467681 0.675912
vt 0.065658 0.173266
vt 0.112637 0.199648
vt 0.253852 0.053228
vt 0.225787 0.007234
vt 0.506327 0.856912
vt 0.506327 0.636959
vt 0.283853 0.637589
vt 0.283766 0.860411
vt 0.225787 0.786005
vt 0.253852 0.740011
vt 0.904326 0.488124
vt 0.944526 0.489199
vt 0.863932 0.510422
vt 0.889857 0.501549
vt 0.633215 0.823934
vt 0.650994 0.822131
vt 0.718990 0.814146
vt 0.799548 0.962185
vt 0.889492 0.962185
vt 0.932297 0.937422
vt 0.941978 0.916130
vt 0.799548 0.916130
vt 0.608866 0.324556
vt 0.568717 0.322099
vt 0.763279 0.589803
vt 0.744759 0.609998
vt 0.712560 0.322099
vt 0.695005 0.326892
vt 0.623335 0.353241
vt 0.007234 0.954837
vt 0.040309 0.954837
vt 0.105324 0.913949
vt 0.143818 0.852260
vt 0.150214 0.800474
vt 0.007234 0.800474
vt 0.411301 0.307626
s 1
usemtl EnemyBaseColor
f 7/6/6 45/17/17 47/18/18 23/19/19
f 11/20/20 51/21/21 50/22/22 10/23/23
f 10/23/23 50/22/22 49/24/24 9/1/1
f 9/1/1 49/24/24 46/25/25 3/2/2
f 93/5/5 95/26/26 45/17/17 7/6/6
f 23/19/19 47/18/18 56/27/27 22/28/28
f 19/9/9 53/53/45 48/54/46 5/10/10
f 1/14/14 44/55/47 43/56/48 13/39/35
f 12/43/37 52/57/49 51/58/21 11/44/20
f 20/37/33 54/59/50 53/53/45 19/9/9
f 13/39/35 43/56/48 52/60/49 12/41/37
f 21/33/31 55/61/51 54/62/50 20/34/33
f 88/13/13 90/63/52 44/55/47 1/14/14
f 22/28/28 56/27/27 55/64/51 21/31/31
f 29/65/53 43/66/48 44/67/47 30/68/54
f 96/69/55 95/70/26 46/71/25 32/72/56
f 33/73/44 47/74/18 45/75/17 31/76/41
f 91/77/57 90/78/52 48/79/46 34/80/58
f 32/72/56 46/71/25 49/81/24 35/82/59
f 35/82/59 49/81/24 50/83/22 36/84/60
f 36/84/60 50/83/22 51/85/21 37/86/61
f 37/87/61 51/88/21 52/89/49 38/90/62
f 38/91/62 52/92/49 43/66/48 29/65/53
f 34/80/58 48/79/46 53/93/45 39/94/63
f 39/94/63 53/93/45 54/95/50 40/96/64
f 40/97/64 54/98/50 55/99/51 41/100/65
f 41/101/65 55/102/51 56/103/27 42/104/66
f 42/104/66 56/103/27 47/74/18 33/73/44
f 58/105/67 92/106/57 87/107/68 72/108/69 57/109/70
f 74/146/73 70/147/76 61/148/43 59/149/42 97/150/55 98/151/68
f 86/152/80 83/153/81 84/154/82 85/155/83
f 65/156/84 71/157/78 72/158/69 66/159/85
f 68/160/86 73/161/71 74/162/73 69/163/87
f 66/159/85 72/158/69 87/164/68 73/161/71 68/160/86
f 75/165/88 83/153/81 86/152/80 78/166/89
f 77/171/92 85/155/83 84/154/82 76/172/93
f 75/165/88 79/177/91 80/178/90 76/172/93
f 77/171/92 81/179/95 82/180/94 78/166/89
f 78/166/89 86/152/80 85/155/83 77/171/92
f 78/166/89 82/180/94 79/177/91 75/165/88
f 76/172/93 84/154/82 83/153/81 75/165/88
f 30/68/54 44/67/47 90/185/52 91/186/57
f 5/10/10 48/54/46 90/187/52 88/188/13
f 92/190/57 62/191/79 67/192/72 73/193/71 87/194/68
f 31/76/41 45/75/17 95/197/26 96/198/55
f 3/2/2 46/25/25 95/199/26 93/200/5
f 97/202/55 60/203/75 63/204/74 64/205/77 71/206/78 98/207/68
f 69/163/87 74/162/73 98/208/68 71/157/78 65/156/84
f 76/172/93 80/178/90 81/179/95 77/171/92
usemtl EnemySecondaryColor
f 9/1/1 3/2/2 4/3/3 18/4/4
f 93/5/5 7/6/6 8/7/7 94/8/8
f 19/9/9 5/10/10 6/11/11 28/12/12
f 88/13/13 1/14/14 2/15/15 89/16/16
f 7/6/6 23/19/19 24/29/29 8/7/7
f 23/19/19 22/28/28 25/30/30 24/29/29
f 22/28/28 21/31/31 26/32/32 25/30/30
f 21/33/31 20/34/33 27/35/34 26/36/32
f 20/37/33 19/9/9 28/12/12 27/38/34
f 1/14/14 13/39/35 14/40/36 2/15/15
f 13/39/35 12/41/37 15/42/38 14/40/36
f 12/43/37 11/44/20 16/45/39 15/46/38
f 11/20/20 10/23/23 17/47/40 16/48/39
f 10/23/23 9/1/1 18/4/4 17/47/40
f 31/49/41 59/50/42 61/51/43 33/52/44
f 40/110/64 73/111/71 67/112/72 39/113/63
f 91/114/57 92/115/57 58/116/67 30/117/54
f 41/118/65 74/119/73 73/120/71 40/121/64
f 35/122/59 63/123/74 60/124/75 32/125/56
f 42/126/66 70/127/76 74/128/73 41/129/65
f 36/130/60 64/131/77 63/123/74 35/122/59
f 33/52/44 61/51/43 70/127/76 42/126/66
f 37/132/61 71/133/78 64/131/77 36/130/60
f 38/134/62 72/135/69 71/136/78 37/137/61
f 30/117/54 58/116/67 57/138/70 29/139/53
f 29/139/53 57/138/70 72/140/69 38/141/62
f 96/142/55 97/143/55 59/50/42 31/49/41
f 39/113/63 67/112/72 62/144/79 34/145/58
f 66/167/85 80/168/90 79/169/91 65/170/84
f 69/173/87 82/174/94 81/175/95 68/176/86
f 65/170/84 79/169/91 82/174/94 69/173/87
f 68/181/86 81/182/95 80/168/90 66/167/85
f 34/145/58 62/144/79 92/183/57 91/184/57
f 5/10/10 88/188/13 89/189/16 6/11/11
f 32/125/56 60/124/75 97/195/55 96/196/55
f 3/2/2 93/200/5 94/201/8 4/3/3
