# Blender 3.6.2
# www.blender.org
mtllib Crown_LowPolyAlt.mtl
o Cylinder.027
v 0.118693 -0.055150 0.049164
v 0.090844 -0.055150 0.090844
v 0.049164 -0.055150 0.118693
v 0.000000 -0.055150 0.128473
v -0.049164 -0.055150 0.118693
v -0.090844 -0.055150 0.090844
v -0.118693 -0.055150 0.049164
v -0.128473 -0.055150 -0.000000
v -0.118693 -0.055150 -0.049164
v -0.090844 -0.055150 -0.090844
v -0.049164 -0.055150 -0.118693
v 0.000000 -0.055150 -0.128473
v 0.049164 -0.055150 -0.118693
v 0.090844 -0.055150 -0.090844
v 0.118693 -0.055150 -0.049164
v 0.128473 -0.055150 -0.000000
v 0.114153 -0.009426 0.114152
v 0.149148 -0.010009 0.061779
v 0.061779 -0.009426 0.149147
v -0.000000 -0.010009 0.161436
v -0.061779 -0.009426 0.149147
v -0.114153 -0.009426 0.114153
v -0.149148 -0.010009 0.061779
v -0.161436 -0.009426 -0.000000
v -0.149148 -0.009426 -0.061779
v -0.114153 -0.010009 -0.114153
v -0.061779 -0.009426 -0.149148
v 0.000000 -0.009529 -0.161436
v 0.061779 -0.009426 -0.149148
v 0.114153 -0.010009 -0.114153
v 0.149147 -0.009426 -0.061779
v 0.161436 -0.009426 -0.000000
v 0.156509 -0.004461 -0.000000
v 0.144595 -0.004461 -0.059893
v 0.110668 -0.004527 -0.110668
v 0.059893 -0.004461 -0.144595
v -0.000000 -0.004990 -0.156509
v -0.059893 -0.004461 -0.144595
v -0.110668 -0.004527 -0.110668
v -0.144595 -0.004461 -0.059893
v -0.156509 -0.004461 -0.000000
v -0.144595 -0.004527 0.059893
v -0.110668 -0.004461 0.110668
v -0.059893 -0.004461 0.144595
v 0.000000 -0.004527 0.156509
v 0.059893 -0.004461 0.144595
v 0.144595 -0.004527 0.059893
v 0.110668 -0.004461 0.110668
v 0.156509 0.050192 -0.000000
v 0.144595 0.037508 -0.059893
v 0.110668 0.073920 -0.110668
v 0.059893 0.037508 -0.144595
v -0.000000 0.014679 -0.156509
v -0.059893 0.037508 -0.144595
v -0.110668 0.073920 -0.110668
v -0.144595 0.037508 -0.059893
v -0.156509 0.050192 -0.000000
v -0.144595 0.086484 0.059893
v -0.110668 0.037508 0.110668
v -0.059893 0.079001 0.144595
v 0.000000 0.133202 0.156509
v 0.059893 0.079001 0.144595
v 0.110668 0.037508 0.110668
v 0.144595 0.086484 0.059893
v 0.149148 -0.049736 0.061779
v 0.114153 -0.049736 0.114152
v 0.061779 -0.049736 0.149147
v -0.000000 -0.049736 0.161436
v -0.061779 -0.049736 0.149147
v -0.114153 -0.049736 0.114153
v -0.149148 -0.049736 0.061779
v -0.161436 -0.049736 -0.000000
v -0.149148 -0.049736 -0.061779
v -0.114153 -0.049736 -0.114153
v -0.061779 -0.049736 -0.149148
v 0.000000 -0.049736 -0.161436
v 0.061779 -0.049736 -0.149148
v 0.114153 -0.049736 -0.114153
v 0.149147 -0.049736 -0.061779
v 0.161436 -0.049736 -0.000000
vn 1.0000 -0.0000 -0.0000
vn 1.0000 -0.0000 -0.0006
vn 0.9239 -0.0000 0.3827
vn 0.8820 0.2615 0.3921
vn 0.8735 0.2603 0.4115
vn 0.9654 0.2419 -0.0972
vn 0.9675 0.2477 -0.0519
vn 0.7067 -0.0000 0.7075
vn 0.7071 -0.0000 0.7071
vn 0.5108 0.6955 0.5054
vn 0.6723 0.6859 0.2785
vn 0.5105 0.6955 0.5056
vn 0.3827 -0.0000 0.9239
vn 0.3832 -0.0000 0.9237
vn -0.0000 -0.0000 1.0000
vn 0.6624 0.6955 -0.2785
vn 0.5146 0.6859 -0.5146
vn 0.6625 0.6955 -0.2781
vn -0.3832 -0.0000 0.9237
vn -0.3827 -0.0000 0.9239
vn -0.5108 0.6955 0.5054
vn -0.2714 0.6955 0.6653
vn -0.2718 0.6955 0.6651
vn -0.5105 0.6955 0.5056
vn -0.7067 -0.0000 0.7075
vn -0.7071 -0.0000 0.7071
vn -0.9239 -0.0000 0.3827
vn -1.0000 -0.0000 -0.0006
vn -1.0000 -0.0000 -0.0000
vn -0.5146 0.6859 -0.5146
vn -0.6624 0.6955 -0.2785
vn -0.6625 0.6955 -0.2781
vn -0.9241 -0.0000 -0.3821
vn -0.9239 -0.0000 -0.3827
vn 0.2937 0.2049 -0.9337
vn 0.2201 0.1904 -0.9567
vn -0.0000 0.1686 -0.9857
vn -0.7071 -0.0000 -0.7071
vn -0.3822 -0.0000 -0.9241
vn -0.3827 -0.0000 -0.9239
vn 0.2752 0.7035 -0.6552
vn 0.2751 0.7035 -0.6553
vn -0.0000 -0.0000 -1.0000
vn -0.0000 0.6859 0.7277
vn 0.3822 -0.0000 -0.9241
vn 0.3827 -0.0000 -0.9239
vn 0.7071 -0.0000 -0.7071
vn 0.9241 -0.0000 -0.3821
vn 0.9239 -0.0000 -0.3827
vn -0.7185 0.6955 0.0038
vn -0.7185 0.6955 0.0034
vn -0.0000 0.7194 -0.6946
vn -0.9062 0.2233 -0.3591
vn -0.9091 0.2229 -0.3520
vn -0.9654 0.2419 -0.0972
vn -0.9675 0.2477 -0.0519
vn 0.4316 -0.0000 -0.9021
vn -0.8735 0.2603 0.4115
vn -0.8820 0.2615 0.3921
vn -0.6723 0.6859 0.2785
vn 0.6862 0.2415 0.6862
vn -0.7072 -0.0000 0.7071
vn -0.7096 -0.0000 0.7046
vn -0.9293 -0.0000 0.3693
vn 0.9172 -0.0000 -0.3984
vn 0.2714 0.6955 0.6653
vn 0.2718 0.6955 0.6651
vn 0.7185 0.6955 0.0038
vn 0.7185 0.6955 0.0034
vn -0.3826 -0.0000 0.9239
vn -0.3074 -0.0000 0.9516
vn 0.7072 -0.0000 0.7071
vn 0.9293 -0.0000 0.3693
vn 0.7096 -0.0000 0.7046
vn -1.0000 -0.0000 0.0001
vn -0.9991 -0.0000 0.0424
vn -0.9172 -0.0000 -0.3984
vn -0.8610 0.2274 -0.4549
vn 0.4344 0.2855 0.8543
vn 0.4820 0.2742 0.8322
vn -0.2201 0.1904 -0.9567
vn -0.2937 0.2049 -0.9337
vn 1.0000 -0.0000 0.0001
vn 0.9991 -0.0000 0.0424
vn -0.2752 0.7035 -0.6552
vn -0.2751 0.7035 -0.6553
vn 0.4650 0.2347 -0.8536
vn -0.4344 0.2855 0.8543
vn -0.6862 0.2415 0.6862
vn -0.4820 0.2742 0.8322
vn -0.0000 0.3303 0.9439
vn 0.9062 0.2233 -0.3591
vn 0.9091 0.2229 -0.3520
vn 0.8610 0.2274 -0.4549
vn 0.3826 -0.0000 0.9239
vn 0.3074 -0.0000 0.9516
vn -0.4316 -0.0000 -0.9021
vn -0.4650 0.2347 -0.8536
vt 0.062500 0.516029
vt 0.062500 1.000000
vt 0.000000 1.000000
vt 0.000000 0.516029
vt 0.750000 0.059005
vt 0.250000 0.010000
vt 0.341844 0.028269
vt 0.823091 0.073544
vt 1.000000 0.516029
vt 1.000000 1.000000
vt 0.937500 1.000000
vt 0.937500 0.516029
vt 0.875000 0.516029
vt 0.875000 1.000000
vt 0.812500 1.000000
vt 0.812500 0.516029
vt 0.125000 1.000000
vt 0.187500 1.000000
vt 0.750000 1.000000
vt 0.750000 0.516029
vt 0.687500 1.000000
vt 0.687500 0.516029
vt 0.625000 1.000000
vt 0.625000 0.516029
vt 0.625000 0.516029
vt 0.562500 1.000000
vt 0.562500 0.516029
vt 0.437500 1.000000
vt 0.500000 1.000000
vt 0.500000 0.516029
vt 0.940995 0.250000
vt 0.490000 0.250000
vt 0.471731 0.341844
vt 0.926456 0.323091
vt 0.437500 0.516029
vt 0.375000 1.000000
vt 0.375000 0.516029
vt 0.250000 1.000000
vt 0.312500 1.000000
vt 0.312500 0.516029
vt 0.312500 0.516029
vt 0.250000 0.516029
vt 0.187500 0.516029
vt 0.125000 0.516029
vt 0.750000 0.440995
vt 0.250000 0.490000
vt 0.158156 0.471731
vt 0.676909 0.426456
vt 0.080294 0.419706
vt 0.614946 0.385054
vt 0.676910 0.073544
vt 0.158156 0.028269
vt 0.823091 0.426456
vt 0.341844 0.471731
vt 0.614946 0.114946
vt 0.080294 0.080294
vt 0.419706 0.419706
vt 0.885054 0.385054
vt 0.926456 0.176909
vt 0.471731 0.158156
vt 0.559005 0.250000
vt 0.573544 0.323091
vt 0.028269 0.341844
vt 0.010000 0.250000
vt 0.573544 0.176909
vt 0.028269 0.158156
vt 0.885054 0.114946
vt 0.419706 0.080294
s 1
f 80/1/1 32/2/2 18/3/3 65/4/3
f 9/5/4 56/6/5 57/7/6 8/8/7
f 65/9/3 18/10/3 17/11/8 66/12/9
f 17/11/10 18/10/11 47/10/11 48/11/12
f 67/13/13 19/14/14 20/15/15 68/16/15
f 31/17/16 30/18/17 35/18/17 34/17/18
f 68/16/15 20/15/15 21/19/19 69/20/20
f 22/21/21 21/19/22 44/19/23 43/21/24
f 69/20/20 21/19/19 22/21/25 70/22/26
f 70/22/26 22/21/25 23/23/27 71/24/27
f 71/25/27 23/23/27 24/26/28 72/27/29
f 26/28/30 25/29/31 40/29/32 39/28/30
f 72/27/29 24/26/28 25/29/33 73/30/34
f 5/31/35 60/32/36 61/33/37 4/34/37
f 73/30/34 25/29/33 26/28/38 74/35/38
f 74/35/38 26/28/38 27/36/39 75/37/40
f 30/18/17 29/38/41 36/38/42 35/18/17
f 75/37/40 27/36/39 28/39/43 76/40/43
f 21/19/22 20/15/44 45/15/44 44/19/23
f 76/41/43 28/39/43 29/38/45 77/42/46
f 77/42/46 29/38/45 30/18/47 78/43/47
f 78/43/47 30/18/47 31/17/48 79/44/49
f 25/29/31 24/26/50 41/26/51 40/29/32
f 79/44/49 31/17/48 32/2/2 80/1/1
f 66/12/9 17/11/8 19/14/14 67/13/13
f 29/38/41 28/39/52 37/39/52 36/38/42
f 1/45/53 64/46/54 49/47/55 16/48/56
f 35/18/47 36/38/45 52/38/57 51/18/47
f 16/48/56 49/47/55 50/49/58 15/50/59
f 24/26/50 23/23/60 42/23/60 41/26/51
f 10/51/61 55/52/61 56/6/5 9/5/4
f 42/23/27 43/21/62 59/21/63 58/23/64
f 34/17/49 35/18/47 51/18/47 50/17/65
f 19/14/66 17/11/10 48/11/12 46/14/67
f 32/2/68 31/17/16 34/17/18 33/2/69
f 44/19/70 45/15/15 61/15/15 60/19/71
f 48/11/72 47/10/3 64/10/73 63/11/74
f 40/29/34 41/26/75 57/26/76 56/29/77
f 2/53/78 63/54/78 64/46/54 1/45/53
f 11/55/79 54/56/80 55/52/61 10/51/61
f 4/34/37 61/33/37 62/57/81 3/58/82
f 33/2/83 34/17/49 50/17/65 49/2/84
f 27/36/85 26/28/30 39/28/30 38/36/86
f 23/23/60 22/21/21 43/21/24 42/23/60
f 28/39/52 27/36/85 38/36/86 37/39/52
f 18/3/11 32/2/68 33/2/69 47/3/11
f 20/15/44 19/14/66 46/14/67 45/15/44
f 6/59/87 59/60/87 60/32/36 5/31/35
f 13/61/88 14/62/89 51/63/89 52/64/90
f 12/65/91 13/61/88 52/64/90 53/66/91
f 12/65/91 53/66/91 54/56/80 11/55/79
f 7/67/92 8/8/7 57/7/6 58/68/93
f 7/67/92 58/68/93 59/60/94 6/59/94
f 14/62/89 15/50/59 50/49/58 51/63/89
f 36/38/45 37/39/43 53/39/43 52/38/57
f 45/15/15 46/14/95 62/14/96 61/15/15
f 37/39/43 38/36/39 54/36/97 53/39/43
f 47/3/3 33/2/83 49/2/84 64/3/73
f 38/36/39 39/28/38 55/28/38 54/36/97
f 41/26/75 42/23/27 58/23/64 57/26/76
f 46/14/95 48/11/72 63/11/74 62/14/96
f 43/21/62 44/19/70 60/19/71 59/21/63
f 39/28/38 40/29/34 56/29/77 55/28/38
f 3/58/82 62/57/81 63/54/98 2/53/98
