# Blender 3.6.2
# www.blender.org
mtllib Crown_LowPoly.mtl
o Cylinder.027
v 0.118693 -0.055150 0.049164
v 0.090844 -0.055150 0.090844
v 0.049164 -0.055150 0.118693
v 0.000000 -0.055150 0.128473
v -0.049164 -0.055150 0.118693
v -0.090844 -0.055150 0.090844
v -0.118693 -0.055150 0.049164
v -0.128473 -0.055150 -0.000000
v -0.118693 -0.055150 -0.049164
v -0.090844 -0.055150 -0.090844
v -0.049164 -0.055150 -0.118693
v 0.000000 -0.055150 -0.128473
v 0.049164 -0.055150 -0.118693
v 0.090844 -0.055150 -0.090844
v 0.118693 -0.055150 -0.049164
v 0.128473 -0.055150 -0.000000
v 0.114153 -0.009426 0.114152
v 0.149148 -0.010009 0.061779
v 0.061779 -0.009426 0.149147
v -0.000000 -0.010009 0.161436
v -0.061779 -0.009426 0.149147
v -0.114153 -0.009426 0.114153
v -0.149148 -0.010009 0.061779
v -0.161436 -0.009426 -0.000000
v -0.149148 -0.009426 -0.061779
v -0.114153 -0.010009 -0.114153
v -0.061779 -0.009426 -0.149148
v 0.000000 -0.009529 -0.161436
v 0.061779 -0.009426 -0.149148
v 0.114153 -0.010009 -0.114153
v 0.149147 -0.009426 -0.061779
v 0.161436 -0.009426 -0.000000
v 0.156509 -0.004461 -0.000000
v 0.144595 -0.004461 -0.059893
v 0.110668 -0.004527 -0.110668
v 0.059893 -0.004461 -0.144595
v -0.000000 -0.004990 -0.156509
v -0.059893 -0.004461 -0.144595
v -0.110668 -0.004527 -0.110668
v -0.144595 -0.004461 -0.059893
v -0.156509 -0.004461 -0.000000
v -0.144595 -0.004527 0.059893
v -0.110668 -0.004461 0.110668
v -0.059893 -0.004461 0.144595
v 0.000000 -0.004527 0.156509
v 0.059893 -0.004461 0.144595
v 0.144595 -0.004527 0.059893
v 0.110668 -0.004461 0.110668
v 0.128473 0.050192 -0.000000
v 0.156509 0.050192 -0.000000
v 0.118693 0.037508 -0.049164
v 0.144595 0.037508 -0.059893
v 0.090844 0.073920 -0.090844
v 0.110668 0.073920 -0.110668
v 0.049164 0.037508 -0.118693
v 0.059893 0.037508 -0.144595
v 0.000000 0.014679 -0.128473
v -0.000000 0.014679 -0.156509
v -0.049164 0.037508 -0.118693
v -0.059893 0.037508 -0.144595
v -0.090844 0.073920 -0.090844
v -0.110668 0.073920 -0.110668
v -0.118693 0.037508 -0.049164
v -0.144595 0.037508 -0.059893
v -0.128473 0.050192 -0.000000
v -0.156509 0.050192 -0.000000
v -0.118693 0.086484 0.049164
v -0.144595 0.086484 0.059893
v -0.090844 0.037508 0.090844
v -0.110668 0.037508 0.110668
v -0.049164 0.079001 0.118693
v -0.059893 0.079001 0.144595
v 0.000000 0.133202 0.128473
v 0.000000 0.133202 0.156509
v 0.049164 0.079001 0.118693
v 0.059893 0.079001 0.144595
v 0.090844 0.037508 0.090844
v 0.110668 0.037508 0.110668
v 0.144595 0.086484 0.059893
v 0.118693 0.086484 0.049164
v 0.149148 -0.049736 0.061779
v 0.114153 -0.049736 0.114152
v 0.061779 -0.049736 0.149147
v -0.000000 -0.049736 0.161436
v -0.061779 -0.049736 0.149147
v -0.114153 -0.049736 0.114153
v -0.149148 -0.049736 0.061779
v -0.161436 -0.049736 -0.000000
v -0.149148 -0.049736 -0.061779
v -0.114153 -0.049736 -0.114153
v -0.061779 -0.049736 -0.149148
v 0.000000 -0.049736 -0.161436
v 0.061779 -0.049736 -0.149148
v 0.114153 -0.049736 -0.114153
v 0.149147 -0.049736 -0.061779
v 0.161436 -0.049736 -0.000000
vn 1.0000 -0.0000 -0.0000
vn 1.0000 -0.0000 -0.0006
vn 0.9239 -0.0000 0.3827
vn 0.7071 -0.0000 0.7071
vn 0.9165 -0.0000 0.4000
vn 0.7067 -0.0000 0.7075
vn 0.5108 0.6955 0.5054
vn 0.6723 0.6859 0.2785
vn 0.5105 0.6955 0.5056
vn 0.3827 -0.0000 0.9239
vn 0.3832 -0.0000 0.9237
vn -0.0000 -0.0000 1.0000
vn 0.6624 0.6955 -0.2785
vn 0.5146 0.6859 -0.5146
vn 0.6625 0.6955 -0.2781
vn -0.3832 -0.0000 0.9237
vn -0.3827 -0.0000 0.9239
vn -0.5108 0.6955 0.5054
vn -0.2714 0.6955 0.6653
vn -0.2718 0.6955 0.6651
vn -0.5105 0.6955 0.5056
vn -0.7067 -0.0000 0.7075
vn -0.7071 -0.0000 0.7071
vn -0.9239 -0.0000 0.3827
vn -1.0000 -0.0000 -0.0006
vn -1.0000 -0.0000 -0.0000
vn -0.5146 0.6859 -0.5146
vn -0.6624 0.6955 -0.2785
vn -0.6625 0.6955 -0.2781
vn -0.9241 -0.0000 -0.3821
vn -0.9239 -0.0000 -0.3827
vn -0.3827 -0.0000 -0.9239
vn -0.2964 -0.0000 -0.9551
vn -0.7096 -0.0000 -0.7046
vn -0.7071 -0.0000 -0.7071
vn -0.3822 -0.0000 -0.9241
vn 0.2752 0.7035 -0.6552
vn 0.2751 0.7035 -0.6553
vn -0.0000 -0.0000 -1.0000
vn -0.0000 0.6859 0.7277
vn 0.3822 -0.0000 -0.9241
vn 0.3827 -0.0000 -0.9239
vn 0.7071 -0.0000 -0.7071
vn 0.9241 -0.0000 -0.3821
vn 0.9239 -0.0000 -0.3827
vn -0.7185 0.6955 0.0038
vn -0.7185 0.6955 0.0034
vn -0.0000 0.7194 -0.6946
vn -0.9988 -0.0000 -0.0494
vn -0.9165 -0.0000 0.4000
vn 0.4316 -0.0000 -0.9021
vn -0.9302 -0.0000 -0.3671
vn -0.6723 0.6859 0.2785
vn 0.4399 -0.0000 0.8981
vn -0.7072 -0.0000 0.7071
vn -0.7096 -0.0000 0.7046
vn -0.9293 -0.0000 0.3693
vn 0.9172 -0.0000 -0.3984
vn 0.2714 0.6955 0.6653
vn 0.2718 0.6955 0.6651
vn 0.7185 0.6955 0.0038
vn 0.7185 0.6955 0.0034
vn -0.3826 -0.0000 0.9239
vn -0.3074 -0.0000 0.9516
vn 0.7072 -0.0000 0.7071
vn 0.9293 -0.0000 0.3693
vn 0.7096 -0.0000 0.7046
vn -1.0000 -0.0000 0.0001
vn -0.9991 -0.0000 0.0424
vn -0.9172 -0.0000 -0.3984
vn 0.7096 -0.0000 -0.7046
vn 0.2964 -0.0000 -0.9551
vn 1.0000 -0.0000 0.0001
vn 0.9991 -0.0000 0.0424
vn -0.2752 0.7035 -0.6552
vn -0.2751 0.7035 -0.6553
vn 0.3672 0.7504 0.5496
vn -0.6846 0.7160 -0.1362
vn -0.5965 0.7667 -0.2372
vn -0.5976 0.7663 -0.2361
vn 0.0315 0.9234 -0.3826
vn 0.1066 0.8374 -0.5361
vn 0.0329 0.9222 -0.3854
vn 0.4973 0.8014 -0.3323
vn 0.5965 0.7667 -0.2372
vn 0.5976 0.7663 -0.2361
vn 0.3044 0.8366 0.4555
vn -0.3672 0.7504 0.5496
vn -0.3725 0.9251 -0.0741
vn -0.4174 0.8886 -0.1902
vn -0.4178 0.8881 -0.1915
vn 0.4555 0.8366 -0.3044
vn 0.4174 0.8886 -0.1902
vn 0.4178 0.8881 -0.1915
vn -0.0315 0.9234 -0.3826
vn 0.0434 0.9749 -0.2182
vn -0.0329 0.9222 -0.3854
vn 0.6846 0.7160 -0.1362
vn -0.4973 0.8014 -0.3323
vn -0.1066 0.8374 -0.5361
vn -0.3044 0.8366 0.4555
vn 0.3725 0.9251 -0.0741
vn -0.4555 0.8366 -0.3044
vn -0.0434 0.9749 -0.2182
vn -0.4399 -0.0000 0.8981
vn 0.9988 -0.0000 -0.0494
vn 0.3826 -0.0000 0.9239
vn 0.3074 -0.0000 0.9516
vn -0.4316 -0.0000 -0.9021
vn 0.9302 -0.0000 -0.3671
vt 0.062500 0.516029
vt 0.062500 1.000000
vt 0.000000 1.000000
vt 0.000000 0.516029
vt 0.676910 0.073544
vt 0.176909 0.073544
vt 0.250000 0.059005
vt 0.750000 0.059005
vt 1.000000 0.516029
vt 1.000000 1.000000
vt 0.937500 1.000000
vt 0.937500 0.516029
vt 0.875000 0.516029
vt 0.875000 1.000000
vt 0.812500 1.000000
vt 0.812500 0.516029
vt 0.125000 1.000000
vt 0.187500 1.000000
vt 0.750000 1.000000
vt 0.750000 0.516029
vt 0.687500 1.000000
vt 0.687500 0.516029
vt 0.625000 1.000000
vt 0.625000 0.516029
vt 0.625000 0.516029
vt 0.562500 1.000000
vt 0.562500 0.516029
vt 0.437500 1.000000
vt 0.500000 1.000000
vt 0.500000 0.516029
vt 0.885054 0.385054
vt 0.385054 0.385054
vt 0.323091 0.426456
vt 0.823091 0.426456
vt 0.437500 0.516029
vt 0.375000 1.000000
vt 0.375000 0.516029
vt 0.250000 1.000000
vt 0.312500 1.000000
vt 0.312500 0.516029
vt 0.312500 0.516029
vt 0.250000 0.516029
vt 0.187500 0.516029
vt 0.125000 0.516029
vt 0.676909 0.426456
vt 0.176909 0.426456
vt 0.114946 0.385054
vt 0.614946 0.385054
vt 0.250000 0.440995
vt 0.750000 0.440995
vt 0.614946 0.114946
vt 0.114946 0.114946
vt 0.926456 0.323091
vt 0.426456 0.323091
vt 0.573544 0.176909
vt 0.073544 0.176909
vt 0.426456 0.176909
vt 0.440995 0.250000
vt 0.940995 0.250000
vt 0.926456 0.176909
vt 0.385054 0.114946
vt 0.419706 0.080294
vt 0.471731 0.158156
vt 0.490000 0.250000
vt 0.471731 0.341844
vt 0.250000 0.490000
vt 0.158156 0.471731
vt 0.419706 0.419706
vt 0.341844 0.471731
vt 0.073544 0.323091
vt 0.080294 0.419706
vt 0.028269 0.341844
vt 0.059005 0.250000
vt 0.010000 0.250000
vt 0.028269 0.158156
vt 0.080294 0.080294
vt 0.158156 0.028269
vt 0.323091 0.073544
vt 0.250000 0.010000
vt 0.341844 0.028269
vt 0.559005 0.250000
vt 0.573544 0.323091
vt 0.823091 0.073544
vt 0.885054 0.114946
s 1
f 96/1/1 32/2/2 18/3/3 81/4/3
f 10/5/4 61/6/4 63/7/5 9/8/3
f 81/9/3 18/10/3 17/11/6 82/12/4
f 17/11/7 18/10/8 47/10/8 48/11/9
f 83/13/10 19/14/11 20/15/12 84/16/12
f 31/17/13 30/18/14 35/18/14 34/17/15
f 84/16/12 20/15/12 21/19/16 85/20/17
f 22/21/18 21/19/19 44/19/20 43/21/21
f 85/20/17 21/19/16 22/21/22 86/22/23
f 86/22/23 22/21/22 23/23/24 87/24/24
f 87/25/24 23/23/24 24/26/25 88/27/26
f 26/28/27 25/29/28 40/29/29 39/28/27
f 88/27/26 24/26/25 25/29/30 89/30/31
f 3/31/32 75/32/33 77/33/34 2/34/35
f 89/30/31 25/29/30 26/28/35 90/35/35
f 90/35/35 26/28/35 27/36/36 91/37/32
f 30/18/14 29/38/37 36/38/38 35/18/14
f 91/37/32 27/36/36 28/39/39 92/40/39
f 21/19/19 20/15/40 45/15/40 44/19/20
f 92/41/39 28/39/39 29/38/41 93/42/42
f 93/42/42 29/38/41 30/18/43 94/43/43
f 94/43/43 30/18/43 31/17/44 95/44/45
f 25/29/28 24/26/46 41/26/47 40/29/29
f 95/44/45 31/17/44 32/2/2 96/1/1
f 82/12/4 17/11/6 19/14/11 83/13/10
f 29/38/37 28/39/48 37/39/48 36/38/38
f 16/45/26 49/46/49 51/47/50 15/48/24
f 35/18/43 36/38/41 56/38/51 54/18/43
f 2/34/35 77/33/34 80/49/52 1/50/31
f 24/26/46 23/23/53 42/23/53 41/26/47
f 11/51/10 59/52/54 61/6/4 10/5/4
f 42/23/24 43/21/55 70/21/56 68/23/57
f 34/17/45 35/18/43 54/18/43 52/17/58
f 19/14/59 17/11/7 48/11/9 46/14/60
f 32/2/61 31/17/13 34/17/15 33/2/62
f 44/19/63 45/15/12 74/15/12 72/19/64
f 48/11/65 47/10/3 79/10/66 78/11/67
f 40/29/31 41/26/68 66/26/69 64/29/70
f 4/53/39 73/54/39 75/32/33 3/31/32
f 12/55/12 57/56/12 59/52/54 11/51/10
f 69/57/71 71/58/72 5/59/42 6/60/43
f 71/58/72 73/54/39 4/53/39 5/59/42
f 33/2/73 34/17/45 52/17/58 50/2/74
f 27/36/75 26/28/27 39/28/27 38/36/76
f 23/23/53 22/21/18 43/21/21 42/23/53
f 28/39/48 27/36/75 38/36/76 37/39/48
f 18/3/8 32/2/61 33/2/62 47/3/8
f 20/15/40 19/14/59 46/14/60 45/15/40
f 69/57/77 67/61/77 68/62/77 70/63/77
f 73/54/78 71/58/79 72/64/80 74/65/78
f 49/46/81 80/49/82 79/66/82 50/67/83
f 77/33/84 75/32/85 76/68/86 78/69/84
f 53/70/87 51/47/87 52/71/87 54/72/87
f 80/49/88 77/33/88 78/69/88 79/66/88
f 57/56/89 55/73/90 56/74/91 58/75/89
f 61/6/92 59/52/93 60/76/94 62/77/92
f 65/78/95 63/7/96 64/79/96 66/80/97
f 75/32/85 73/54/98 74/65/98 76/68/86
f 71/58/79 69/57/99 70/63/99 72/64/80
f 67/61/100 65/78/95 66/80/97 68/62/100
f 63/7/101 61/6/101 62/77/101 64/79/101
f 59/52/93 57/56/102 58/75/102 60/76/94
f 55/73/90 53/70/103 54/72/103 56/74/91
f 51/47/104 49/46/81 50/67/83 52/71/104
f 1/50/31 80/49/52 49/46/49 16/45/26
f 36/38/41 37/39/39 58/39/39 56/38/51
f 53/70/23 55/73/105 13/81/17 14/82/23
f 9/8/3 63/7/5 65/78/106 8/83/1
f 45/15/12 46/14/107 76/14/108 74/15/12
f 37/39/39 38/36/36 60/36/109 58/39/39
f 47/3/3 33/2/73 50/2/74 79/3/66
f 65/78/106 67/61/110 7/84/45 8/83/1
f 51/47/50 53/70/23 14/82/23 15/48/24
f 38/36/36 39/28/35 62/28/35 60/36/109
f 55/73/105 57/56/12 12/55/12 13/81/17
f 41/26/68 42/23/24 68/23/57 66/26/69
f 7/84/45 67/61/110 69/57/71 6/60/43
f 46/14/107 48/11/65 78/11/67 76/14/108
f 43/21/55 44/19/63 72/19/64 70/21/56
f 39/28/35 40/29/31 64/29/70 62/28/35
