# Blender 3.6.2
# www.blender.org
o Cylinder.033
v -0.471260 -2.251479 0.527445
v -0.285418 1.443812 0.295078
v -0.529143 -2.251479 0.017817
v -0.349978 1.787541 -0.011033
v -0.407424 -2.255555 -0.118766
v -0.136076 2.247959 -0.288841
v 0.358968 -2.255555 -0.320264
v 0.187862 3.324738 -0.206422
v 0.632326 -2.251479 -0.133136
v 0.432390 2.949316 -0.018144
v 0.694853 -2.251479 0.347960
v 0.472165 2.145317 0.287896
v 0.398880 -2.251479 0.732360
v 0.283888 1.718597 0.532424
v -0.187029 -2.251479 0.779892
v -0.042442 1.505264 0.584948
v -0.440750 -0.526403 0.484037
v -0.447021 0.615269 0.039968
v -0.190763 0.615269 -0.292851
v -0.283176 -0.725511 -0.213181
v 0.220111 1.025682 -0.325983
v 0.247927 -0.818105 -0.429110
v 0.558594 0.615269 -0.090730
v 0.632326 -0.818105 -0.133136
v 0.694853 -0.818105 0.347960
v 0.027454 0.580925 0.659293
v -0.082217 -0.818105 0.794887
v 0.152340 3.325626 0.127768
v -0.013634 3.325626 -0.000026
v 0.036719 3.342801 -0.172775
v 0.318061 3.322540 -0.033209
v 0.129354 1.688253 0.552509
v -0.376414 0.199844 0.559895
v -0.292346 1.191790 0.544929
v -0.133961 1.205505 0.675502
v -0.158623 0.199844 0.718353
v -0.007983 -2.255555 -0.803168
v -0.029079 -1.004344 -0.648550
v 0.275505 -2.255555 -0.637714
v 0.151257 -0.603215 -0.543299
v 0.177803 -0.474639 -0.442330
v -0.490887 -2.255555 -0.436216
v -0.433867 -1.282051 -0.428437
v -0.325433 -2.255555 -0.719705
v -0.231019 -0.894918 -0.595456
v -0.015763 -1.260830 -0.746148
v 0.332504 -1.756754 -0.358600
v -0.407424 -1.756754 -0.118766
v -0.078035 -0.118212 -0.364659
v 0.059032 -0.118212 -0.400696
v -0.102342 2.422823 0.251258
v -0.162587 -0.421862 -0.220387
v -0.363084 0.458704 0.389557
vn -0.9015 0.0368 0.4313
vn -0.9813 0.0918 0.1693
vn -0.8785 0.1566 0.4513
vn -0.9662 0.1671 0.1962
vn -0.9760 0.0559 -0.2107
vn -0.8040 0.0335 -0.5937
vn -0.5272 0.1006 -0.8438
vn -0.5371 0.0379 -0.8426
vn 0.3106 0.0945 -0.9458
vn 0.3287 0.0557 -0.9428
vn 0.9608 0.1750 -0.2150
vn 0.9580 0.0644 -0.2793
vn 0.9964 0.0834 0.0137
vn 0.9302 0.0449 0.3642
vn 0.5771 0.1623 0.8004
vn 0.4027 0.1238 0.9069
vn 0.3569 0.0694 0.9316
vn -0.9716 0.2063 -0.1156
vn -0.5991 0.1841 -0.7792
vn -0.1526 0.0360 0.9876
vn 0.2599 0.0737 0.9628
vn 0.4933 0.0429 0.8688
vn -0.3631 0.0138 0.9316
vn 0.9655 -0.0000 0.2604
vn 0.8633 -0.0036 -0.5046
vn 0.8540 0.0282 -0.5195
vn 0.5996 -0.0066 -0.8003
vn 0.5597 0.0349 -0.8280
vn 0.5357 0.0586 -0.8424
vn 0.1867 0.0752 -0.9795
vn -0.4471 0.0525 -0.8929
vn -0.9567 0.0237 -0.2900
vn -0.7402 0.0103 -0.6723
vn -0.7925 0.0268 -0.6093
vn -0.7364 0.0092 -0.6765
vn -0.8778 0.0298 0.4780
vn 0.0465 0.4454 0.8941
vn -0.0878 0.1873 0.9784
vn 0.8976 0.2606 -0.3554
vn -0.3588 0.6242 0.6941
vn -0.7036 0.2095 0.6790
vn 0.1040 0.9924 -0.0656
vn 0.0440 0.9989 0.0130
vn 0.4808 0.6054 0.6343
vn -0.1912 0.3426 0.9198
vn -0.6228 0.0227 0.7821
vn -0.6096 0.0561 0.7907
vn -0.6237 0.0203 0.7814
vn -0.9951 0.0841 0.0530
vn -0.6791 0.4693 0.5644
vn 0.0935 0.1443 -0.9851
vn -0.1340 0.3251 -0.9361
vn 0.5884 0.2116 -0.7804
vn 0.8191 0.2400 -0.5210
vn 0.9035 0.0966 -0.4176
vn -0.5872 0.2275 -0.7768
vn -0.6038 0.0847 -0.7926
vn 0.1350 0.0578 -0.9892
vn -0.9857 0.0489 -0.1610
vn -0.9718 0.1393 -0.1904
vn -0.9792 0.0369 0.1995
vn -0.9709 0.0685 0.2294
vn 0.7783 0.0698 -0.6240
vn 0.9381 0.0569 -0.3417
vn 0.9666 0.0318 -0.2541
vn -0.6108 0.3572 -0.7066
vn 0.0371 0.3135 -0.9489
vn -0.9643 0.2501 0.0874
vn -0.9497 0.3100 -0.0433
vt 1.000000 0.725136
vt 0.985941 0.855502
vt 0.971882 0.985868
vt 0.875000 0.937176
vt 0.875000 0.833333
vt 0.750000 0.937176
vt 0.750000 0.833333
vt 0.625000 1.000000
vt 0.625000 0.858238
vt 0.500000 1.000000
vt 0.500000 0.833333
vt 0.375000 1.000000
vt 0.375000 0.833333
vt 0.250000 1.000000
vt 0.250000 0.833333
vt 0.443154 0.446025
vt 0.299705 0.370000
vt 0.415092 0.215311
vt 0.594111 0.224955
vt 0.106716 0.847551
vt 0.105232 0.902633
vt 0.103747 0.957715
vt 0.102889 0.968139
vt 0.105511 0.865021
vt 0.250000 0.666667
vt 0.125000 0.666667
vt 0.131235 0.500000
vt 0.375000 0.500000
vt 0.375000 0.666667
vt 0.250000 0.500000
vt 0.500000 0.500000
vt 0.500000 0.666667
vt 0.625000 0.500000
vt 0.625000 0.583333
vt 0.625000 0.666667
vt 0.625000 0.708333
vt 0.625000 0.750000
vt 0.750000 0.750000
vt 0.875000 0.666667
vt 0.750000 0.666667
vt 0.750000 0.583333
vt 0.750000 0.500000
vt 0.750000 0.708333
vt 0.985762 0.500000
vt 1.000000 0.666667
vt 0.875000 0.500000
vt 0.010000 0.250000
vt 0.130000 0.299706
vt 0.045495 0.335692
vt 0.250000 0.010000
vt 0.212676 0.100108
vt 0.080294 0.080294
vt 0.274853 0.430000
vt 0.293450 0.480108
vt 0.419706 0.080294
vt 0.022791 0.961727
vt 0.186882 1.000000
vt 0.155941 0.862568
vt 0.019887 0.870823
vt 0.020984 0.907091
vt 0.019178 0.852454
vt 1.000000 0.833333
vt 1.000000 1.000000
vt 0.875000 1.000000
vt 0.750000 1.000000
vt 0.125000 1.000000
vt 0.000000 1.000000
vt 0.000000 0.833333
vt 0.000000 0.666667
vt 0.000000 0.500000
vt 0.125000 0.833333
vt 0.125000 0.500000
vt 1.000000 0.500000
vt 0.080294 0.419706
vt 0.250000 0.490000
vt 0.419706 0.419706
s 1
f 17/1/1 53/2/2 2/3/3 4/4/4 18/5/5
f 18/5/5 4/4/6 6/6/7 19/7/8
f 19/7/8 6/6/7 8/8/9 21/9/10
f 21/9/10 8/8/9 10/10/11 23/11/12
f 23/11/12 10/10/11 12/12/13 25/13/14
f 25/13/14 12/12/15 14/14/16 26/15/17
f 4/16/4 29/17/18 30/18/19 6/19/7
f 27/20/20 26/21/17 16/22/21 35/23/21 36/24/21
f 13/25/22 27/26/20 15/27/23
f 13/25/22 26/15/17 27/26/20
f 11/28/24 25/29/14 13/30/22
f 25/13/14 26/15/17 13/25/22
f 9/31/25 24/32/26 25/29/14 11/28/24
f 24/32/26 23/11/12 25/29/14
f 7/33/27 47/34/27 22/35/28 24/32/26 9/31/25
f 22/35/28 41/36/29 50/37/30 21/9/10 23/11/29 24/32/26
f 49/38/31 19/7/8 21/9/10 50/37/30
f 3/39/32 20/40/33 48/41/34 5/42/34
f 3/39/32 18/5/5 19/7/8 49/38/31 52/43/35 20/40/33
f 1/44/36 17/45/1 3/46/32
f 17/1/1 18/5/5 3/39/32
f 14/47/16 28/48/37 32/49/38
f 10/50/11 31/51/39 12/52/13
f 32/49/38 28/48/37 29/17/40 51/53/41
f 2/54/3 51/53/41 4/16/4
f 8/55/42 30/18/43 31/51/44
f 6/19/7 30/18/19 8/55/9
f 31/51/44 30/18/43 29/17/40 28/48/37
f 12/52/15 31/51/44 28/48/37 14/47/16
f 2/56/3 16/22/45 32/57/38
f 16/22/45 26/58/17 32/57/38
f 36/24/46 35/23/47 34/56/47 33/59/48
f 2/56/49 53/60/2 17/61/1 33/59/49 34/56/49
f 17/61/1 27/20/20 36/24/46 33/59/48
f 16/22/50 2/56/50 34/56/50 35/23/50
f 27/26/20 17/45/1 1/44/36 15/27/23
f 46/62/51 38/63/52 40/5/53
f 40/64/53 41/65/54 22/7/55
f 45/66/56 38/67/52 46/68/51
f 44/26/57 46/69/51 37/70/58
f 44/26/57 45/71/56 46/69/51
f 42/30/59 43/25/60 44/72/57
f 43/15/60 45/71/56 44/26/57
f 5/28/61 48/29/62 43/25/60 42/30/59
f 39/39/63 47/40/64 7/42/65
f 39/39/63 40/5/53 22/7/55 47/40/64
f 37/73/58 46/45/51 39/46/63
f 46/62/51 40/5/53 39/39/63
f 43/47/60 49/48/66 45/74/56
f 45/74/56 49/48/66 50/17/67 38/75/52
f 38/75/52 50/17/67 40/76/53
f 41/36/54 40/76/53 50/37/67
f 51/53/41 2/54/3 32/49/38
f 4/16/4 51/53/41 29/17/18
f 43/25/60 48/29/62 20/40/68
f 20/40/68 52/43/69 49/48/66 43/14/60
f 31/51/39 10/50/11 8/55/9
f 26/15/17 14/14/16 32/57/38
