# Blender 3.6.2
# www.blender.org
o Cylinder.032
v 0.686051 -0.891610 -3.050159
v 0.409332 0.518986 -2.929409
v 0.576123 -0.891610 -2.633309
v 0.212499 0.969463 -2.484098
v -0.600131 -0.891610 -2.099342
v -0.241566 0.875889 -2.308399
v -1.041676 -0.891610 -2.348618
v -0.535837 1.195878 -2.557124
v -1.221117 -0.891610 -2.950306
v -0.644301 1.141793 -2.868185
v -0.762046 -0.891610 -3.704758
v -0.665745 0.832123 -3.404607
v -0.293005 -0.891610 -3.878698
v -0.211680 0.665360 -3.580309
v 0.465599 -0.891610 -3.537480
v 0.233632 0.641875 -3.383474
v 0.773100 -0.325986 -2.920862
v 0.638950 0.230947 -2.924014
v 0.371048 0.149785 -2.317919
v 0.477295 -0.090099 -2.441849
v -0.233521 0.215279 -2.040508
v -0.853059 0.236724 -2.346683
v -1.036446 -0.325986 -2.331079
v -1.092197 0.234178 -2.964692
v -0.916925 -0.325986 -3.667876
v -0.206285 0.207116 -3.809926
v 0.496899 -0.325986 -3.634655
v -0.335516 1.286281 -2.846712
v -0.261896 1.322990 -2.635579
v -0.798522 -0.891610 -0.825334
v -0.509963 0.633242 -0.562601
v -0.116631 1.169367 -0.897346
v 0.515935 -0.891610 -1.290213
v 0.283024 1.348327 -0.987449
v 1.020608 -0.891610 -0.729264
v 0.659681 1.601509 -0.678944
v 0.980815 -0.891610 0.024244
v 0.629958 1.458947 -0.221743
v 0.399368 1.005914 0.182195
v -0.791098 -0.891610 -0.006149
v 0.006124 1.055052 0.088879
v -0.838315 -0.891610 -0.071825
v -0.461772 0.779495 -0.078118
v -0.811867 -0.231991 -0.818360
v -0.690775 0.430831 -0.760541
v -0.198142 0.434676 -1.203753
v 0.463601 0.434676 -1.168806
v 0.504631 -0.569100 -1.254254
v 0.906812 0.437706 -0.676172
v 1.033320 -0.231991 -0.720914
v 0.871865 0.434676 -0.014430
v 0.992957 -0.231991 0.043388
v 0.650234 0.433401 0.184966
v -0.641763 0.433423 -0.003809
v -0.800698 -0.231991 -0.027581
v -0.725722 0.431843 -0.098799
v -0.852230 -0.231991 -0.054057
v 0.237413 1.510825 -0.358333
v 0.055697 0.549967 -1.837749
v -0.108737 0.855677 -1.334601
v -0.518047 -0.891610 -1.077669
v -0.316932 0.828956 -1.299620
v -0.836247 -0.891610 -1.786077
v -0.632824 0.263756 -1.756523
v 0.162286 -0.027172 -1.972779
v 0.263201 -0.569100 -1.370379
v 0.130874 -0.400545 -1.292257
v -0.527375 -0.231991 -1.074309
v -0.881463 -0.551004 -1.792859
v -0.600131 -0.325986 -2.099342
v -0.227560 0.898770 -1.516099
v 0.908692 -0.891610 -1.429780
v 0.840458 -0.084771 -1.621323
v 0.518792 0.173437 -1.508593
v 0.211630 0.338967 -1.656336
v 0.936112 -0.891610 -2.386329
v 0.468147 0.485635 -2.015771
v 1.097752 -0.891610 -1.910007
v 0.974140 -0.249385 -1.919547
v 0.921079 -0.569100 -1.431463
v 0.576685 -0.569583 -2.595873
v 0.936112 -0.569100 -2.386329
v 1.067935 -0.569100 -1.914325
v 0.367868 0.485635 -1.807284
v 0.159381 0.485635 -1.907564
v 0.277051 0.485635 -2.094001
v 0.052841 0.732112 -1.512064
v -0.718221 -0.839102 -1.177102
v -0.861824 -0.853927 -1.436325
v -0.606079 0.406810 -1.389159
v 0.246132 -0.060642 -1.483518
v -0.654969 0.038100 -1.245534
v -0.679808 -0.347932 -1.150148
v -0.813189 -0.464622 -1.382843
v -0.673802 -0.891610 3.227917
v -0.397084 0.518986 3.107167
v -0.563875 -0.891610 2.811067
v 0.097857 1.059658 2.580152
v 0.612379 -0.891610 2.277100
v 1.053925 -0.891610 2.526376
v 0.548085 1.195878 2.734882
v 1.099445 -0.891610 3.128065
v 0.656549 1.141793 3.045943
v 0.774294 -0.891610 3.882516
v 0.677993 0.832123 3.582366
v 0.305253 -0.891610 4.056456
v 0.046924 0.705257 3.627554
v -0.453350 -0.891610 3.715238
v -0.760852 -0.325986 3.098620
v -0.358799 0.234178 2.495677
v -0.564998 -0.249385 2.736195
v 0.245769 0.215279 2.218266
v 1.048695 -0.325986 2.508838
v 0.970525 0.234178 3.142450
v 0.929173 -0.325986 3.845634
v -0.042522 -0.325986 3.895763
v 0.347764 1.187304 3.024470
v 0.810770 -0.891610 1.003092
v 0.090316 1.176151 0.507240
v -0.503687 -0.891610 1.467971
v -0.647934 1.265749 0.631907
v -1.008360 -0.891610 0.907022
v -0.968567 -0.891610 0.153515
v -0.504237 1.362005 0.242159
v 0.794638 -0.891610 0.191743
v 0.907835 -0.891610 0.398999
v 0.824115 -0.231991 0.996118
v 0.703024 0.430831 0.938299
v 0.210390 0.434676 1.381511
v -0.451352 0.434676 1.346564
v -0.492382 -0.569100 1.432012
v -0.894563 0.437706 0.853931
v -1.021072 -0.231991 0.898672
v -0.980709 -0.231991 0.134371
v 0.822603 -0.231991 0.196653
v 0.796079 0.431668 0.410131
v 0.921652 -0.231991 0.383094
v -0.043448 0.549967 2.015507
v 0.120986 0.855677 1.512360
v 0.530296 -0.891610 1.255427
v 0.329180 0.828956 1.477378
v 0.848496 -0.891610 1.963835
v 0.645073 0.263756 1.934281
v -0.150037 -0.027172 2.150537
v -0.250952 -0.569100 1.548137
v -0.118625 -0.400545 1.470015
v 0.539624 -0.231991 1.252067
v 0.758184 -0.552159 1.978367
v 0.612379 -0.325986 2.277100
v 0.239808 0.898770 1.693858
v -0.985654 -0.891610 1.607538
v -0.828209 -0.084771 1.799081
v -0.506544 0.173437 1.686352
v -0.199381 0.338967 1.834094
v -0.556059 0.094715 2.575649
v -1.013074 -0.891610 2.564088
v -0.863221 -0.000872 2.427909
v -1.154764 -0.891610 2.087766
v -0.989285 -0.249385 2.097305
v -0.877325 -0.569100 1.658332
v -0.564436 -0.569583 2.773631
v -1.013074 -0.569100 2.564088
v -1.094763 -0.567945 2.084332
v -0.455899 0.485635 2.193529
v -0.355619 0.485635 1.985043
v -0.147132 0.485635 2.085322
v -0.247411 0.485635 2.293809
v -0.040592 0.732112 1.689823
v 0.730470 -0.839102 1.354861
v 0.874072 -0.853927 1.614083
v 0.618327 0.406810 1.566917
v -0.233883 -0.060642 1.661277
v 0.667217 0.038100 1.423292
v 0.692056 -0.347932 1.327906
v 0.825437 -0.464622 1.560602
v 0.345107 1.301445 0.222349
v 0.008792 1.342635 0.145653
vn 0.9510 0.3089 -0.0131
vn 0.8607 0.5006 -0.0927
vn 0.6494 0.6745 0.3512
vn 0.6977 0.4038 0.5918
vn -0.0218 0.4234 0.9057
vn -0.0427 0.3943 0.9180
vn -0.0839 0.5146 0.8533
vn -0.6930 0.3152 0.6484
vn -0.6682 0.7314 0.1361
vn -0.6292 0.7532 -0.1920
vn -0.9571 0.2859 -0.0469
vn -0.6857 0.1085 -0.7198
vn -0.5148 0.5800 -0.6313
vn 0.0684 0.5652 -0.8221
vn 0.0527 0.2673 -0.9622
vn 0.1005 0.5905 0.8007
vn 0.0088 0.0074 -0.9999
vn -0.6176 0.0264 -0.7861
vn 0.6876 0.0986 -0.7193
vn 0.6110 0.5850 -0.5333
vn 0.6996 -0.0049 -0.7145
vn -0.9954 0.0364 -0.0882
vn -0.8017 0.0366 0.5966
vn -0.7861 0.1181 0.6068
vn 0.9991 -0.0285 -0.0309
vn 0.9986 0.0153 0.0497
vn 0.8945 0.1317 0.4273
vn 0.9083 -0.0937 0.4077
vn 0.6393 0.7251 -0.2559
vn 0.6817 0.6923 -0.2365
vn -0.4232 0.9060 -0.0099
vn -0.3163 0.9162 -0.2460
vn -0.8427 0.3709 -0.3903
vn -0.7672 0.6047 -0.2138
vn -0.5809 0.6487 -0.4917
vn -0.3845 0.2996 -0.8731
vn 0.0257 0.6669 -0.7447
vn 0.3730 0.1883 -0.9085
vn 0.9086 0.2354 -0.3449
vn 0.9153 0.2004 -0.3494
vn 0.9329 0.2544 0.2550
vn 0.8716 0.2360 0.4296
vn 0.6466 0.2922 0.7047
vn 0.6522 0.2448 0.7174
vn -0.3656 0.9013 0.2324
vn -0.6039 0.3315 0.7249
vn -0.4034 0.7133 0.5731
vn -0.7115 0.6231 0.3249
vn -0.8528 0.3980 0.3382
vn -0.9289 -0.0165 0.3699
vn -0.9232 0.0831 0.3751
vn -0.8995 0.0911 -0.4272
vn -0.9007 -0.0136 -0.4342
vn -0.6822 -0.0101 0.7311
vn -0.6732 0.0761 0.7356
vn 0.9361 0.0058 -0.3516
vn 0.9315 0.0936 -0.3516
vn 0.8984 0.0830 0.4313
vn 0.9036 -0.0290 0.4273
vn 0.7221 0.0301 -0.6912
vn 0.5641 0.1519 -0.8116
vn 0.3454 0.6041 -0.7182
vn 0.1497 0.2277 -0.9622
vn -0.6658 0.0997 -0.7395
vn -0.2351 0.9713 -0.0349
vn -0.0512 0.8486 0.5265
vn -0.1125 0.7091 0.6961
vn -0.1825 0.4635 -0.8671
vn 0.5364 0.5444 -0.6449
vn 0.8350 0.2743 -0.4769
vn 0.8073 0.5865 0.0658
vn -0.1567 0.9459 -0.2839
vn 0.4864 0.7246 0.4882
vn 0.8753 0.2099 0.4357
vn -0.8140 0.4315 0.3889
vn -0.3669 0.7419 0.5612
vn -0.7867 0.4549 -0.4172
vn -0.9589 0.1274 0.2537
vn -0.7074 0.1215 0.6963
vn -0.7177 0.2701 0.6418
vn 0.6655 0.1824 0.7238
vn -0.7470 0.2126 -0.6299
vn -0.9398 -0.0238 -0.3410
vn -0.9499 0.0863 -0.3005
vn -0.7592 -0.0427 -0.6494
vn -0.9693 0.0194 0.2450
vn -0.5184 0.2461 0.8190
vn -0.6153 0.4745 0.6295
vn -0.9916 0.0229 -0.1276
vn 0.2557 0.5818 0.7720
vn -0.4433 -0.0124 0.8963
vn -0.4430 0.2396 0.8639
vn -0.6873 0.0153 0.7262
vn 0.1874 0.1938 0.9630
vn -0.2856 0.2695 0.9197
vn 0.0514 0.2346 0.9707
vn 0.3481 0.7319 0.5858
vn -0.0597 0.5217 -0.8510
vn -0.3036 0.7724 -0.5579
vn 0.4997 0.8284 -0.2532
vn 0.5287 0.4605 -0.7130
vn 0.2557 0.8987 0.3564
vn -0.6697 0.7405 0.0568
vn 0.9991 0.0372 0.0197
vn 0.9789 0.2039 -0.0156
vn 0.7284 0.1541 0.6676
vn 0.7154 -0.0125 0.6986
vn 0.9017 0.4293 -0.0503
vn 0.7304 0.4792 0.4867
vn 0.7935 0.0483 -0.6066
vn 0.7663 0.2507 -0.5915
vn 0.5351 0.0485 -0.8434
vn 0.5550 0.2529 -0.7925
vn 0.6627 0.1838 0.7260
vn 0.3641 -0.0500 0.9300
vn -0.6688 -0.0057 -0.7434
vn -0.4805 -0.0114 0.8769
vn -0.4615 0.1016 0.8813
vn -0.8474 0.5126 0.1389
vn -0.3315 0.7747 -0.5384
vn -0.6992 0.4577 -0.5492
vn 0.0736 0.4124 -0.9080
vn 0.7281 0.3546 -0.5866
vn 0.8342 0.1474 -0.5313
vn 0.9455 0.3183 -0.0690
vn 0.9688 0.2444 0.0410
vn 0.4669 0.5749 0.6719
vn 0.6748 0.1635 0.7197
vn -0.3939 0.5701 0.7210
vn -0.9836 0.1456 0.1067
vn -0.2565 0.9353 0.2437
vn -0.0844 0.9960 -0.0289
vn -0.7006 0.1064 0.7056
vn -0.3540 0.2201 0.9090
vn 0.6164 0.1246 0.7775
vn -0.0488 0.1343 0.9897
vn 0.9929 0.0347 0.1139
vn 0.8613 0.0400 -0.5065
vn -0.9934 -0.0905 0.0700
vn -0.9290 0.1746 -0.3263
vn -0.9185 -0.1302 -0.3733
vn 0.0222 0.9187 0.3944
vn 0.7557 0.4357 0.4890
vn 0.3039 0.8093 0.5027
vn 0.2983 0.4984 0.8140
vn -0.0156 0.8161 0.5777
vn -0.3301 0.3911 0.8591
vn -0.9192 0.2846 0.2722
vn -0.6033 0.2861 -0.7444
vn -0.8326 0.3060 -0.4616
vn -0.8987 0.0995 -0.4271
vn 0.9862 -0.0260 -0.1637
vn 0.9804 0.0864 -0.1772
vn 0.8753 0.0901 0.4751
vn 0.8767 -0.0123 0.4809
vn 0.9235 0.3690 -0.1049
vn 0.8798 -0.0318 -0.4743
vn 0.8668 0.0855 -0.4913
vn 0.7981 0.2491 -0.5486
vn 0.6665 0.0794 0.7412
vn 0.6684 -0.0339 0.7430
vn -0.9361 0.0058 0.3516
vn -0.9315 0.0935 0.3516
vn -0.9036 -0.0290 -0.4273
vn -0.7221 0.0301 0.6912
vn -0.5641 0.1519 0.8116
vn -0.3454 0.6041 0.7182
vn -0.1497 0.2277 0.9622
vn 0.6658 0.0997 0.7395
vn 0.6275 0.2692 -0.7306
vn 0.0142 0.2205 -0.9753
vn 0.0246 0.1907 -0.9813
vn 0.5507 0.7910 -0.2667
vn 0.1468 0.9340 0.3256
vn 0.1825 0.4635 0.8671
vn -0.5364 0.5444 0.6449
vn -0.8350 0.2743 0.4769
vn -0.8073 0.5865 -0.0658
vn 0.1567 0.9459 0.2839
vn -0.4864 0.7246 -0.4882
vn -0.8753 0.2099 -0.4357
vn 0.8302 0.4229 -0.3632
vn 0.3669 0.7419 -0.5612
vn 0.7910 0.4155 0.4490
vn 0.9741 0.1456 -0.1730
vn 0.7074 0.1215 -0.6963
vn 0.7177 0.2701 -0.6418
vn -0.6655 0.1824 -0.7238
vn 0.8531 0.1891 0.4862
vn 0.9341 0.1398 0.3285
vn 0.9407 0.1448 0.3068
vn 0.8584 0.0775 0.5071
vn 0.9824 0.1357 -0.1284
vn 0.5184 0.2461 -0.8190
vn 0.6153 0.4745 -0.6295
vn 0.9963 0.0027 0.0863
vn -0.2668 0.5757 -0.7729
vn 0.4433 -0.0124 -0.8963
vn 0.4430 0.2396 -0.8639
vn 0.6873 0.0153 -0.7262
vn -0.2110 0.2277 -0.9506
vn 0.2856 0.2695 -0.9197
vn -0.0514 0.2346 -0.9707
vn -0.2927 0.6688 -0.6834
vn -0.4504 0.2972 0.8419
vn 0.2347 0.5310 0.8142
vn -0.2504 0.5438 0.8010
vn -0.7516 0.5344 0.3867
vn -0.2503 0.8974 -0.3634
vn 0.6619 0.7465 -0.0682
vn -0.9796 0.1844 -0.0793
vn -0.9665 0.2329 -0.1080
vn -0.6896 0.2297 -0.6868
vn -0.7077 0.1965 -0.6786
vn -0.9138 0.3830 -0.1351
vn -0.7263 0.4572 -0.5133
vn -0.7842 0.0786 0.6155
vn -0.7897 0.1840 0.5852
vn -0.4526 0.0513 0.8902
vn -0.4761 0.1472 0.8670
vn -0.6627 0.1838 -0.7260
vn -0.3872 0.0929 -0.9173
vn -0.4769 0.8654 0.1539
vn 0.3367 0.7809 0.5262
vn 0.6688 -0.0057 0.7434
vn 0.4805 -0.0114 -0.8769
vn 0.4707 0.1191 -0.8742
vn -0.6667 0.0799 -0.7410
vn -0.6684 -0.0339 -0.7430
vn 0.0715 0.9120 0.4038
vn -0.9344 0.1991 -0.2953
vt 1.000000 0.833333
vt 1.000000 1.000000
vt 0.875000 1.000000
vt 0.875000 0.833333
vt 0.750000 1.000000
vt 0.750000 0.833333
vt 0.625000 1.000000
vt 0.625000 0.833333
vt 0.500000 1.000000
vt 0.500000 0.833333
vt 0.375000 0.833333
vt 0.375000 1.000000
vt 0.250000 1.000000
vt 0.250000 0.833333
vt 0.419706 0.419706
vt 0.299705 0.370000
vt 0.370000 0.200294
vt 0.490000 0.250000
vt 0.250000 0.666667
vt 0.250000 0.500000
vt 0.375000 0.500000
vt 0.125000 0.833333
vt 0.125000 1.000000
vt 0.000000 1.000000
vt 0.000000 0.833333
vt 0.125000 0.666667
vt 0.125000 0.500000
vt 0.500000 0.500000
vt 0.500000 0.666667
vt 0.375000 0.666667
vt 0.625000 0.500000
vt 0.625000 0.666667
vt 1.000000 0.500000
vt 1.000000 0.666667
vt 0.875000 0.747456
vt 0.875000 0.583333
vt 0.875000 0.500000
vt 0.010000 0.250000
vt 0.130000 0.299706
vt 0.080294 0.419706
vt 0.250000 0.490000
vt 0.200294 0.130000
vt 0.080294 0.080294
vt 0.443764 0.833333
vt 0.000000 0.666667
vt 0.000000 0.500000
vt 0.750000 0.500000
vt 0.750000 0.666667
vt 0.000000 0.000000
vt 0.812500 0.666667
vt 0.875000 0.666667
vt 0.937500 0.666667
vt 0.419706 0.080294
vt 0.250000 0.010000
vt 0.468946 0.199171
vt 0.388401 0.155871
vt 0.410545 0.102410
vt 0.777098 1.000000
vt 0.770351 0.833333
vt 0.065122 0.110433
vt 0.183380 0.170835
vt -0.040036 0.319322
vt 0.355499 0.992872
vt 0.326952 0.666667
vt 0.425457 0.666667
vt 0.389801 0.833333
vt 0.712153 0.833333
vt 0.712561 1.000000
vt 0.621172 1.006824
vt 0.125000 0.957769
vt 0.217770 0.500000
vt 0.218327 0.666667
vt 0.388401 0.155871
vt 0.316119 0.500000
vt 0.817215 0.854480
vt 0.833652 0.833333
vt 0.076187 0.448801
vt 0.400879 0.500000
vt 0.825752 0.819167
vt 0.378816 0.434235
vt 0.365488 0.864963
vt 0.728958 0.782871
vt 0.680505 0.666667
vt 0.937500 0.500000
vt 0.220337 0.943471
vt 0.353482 0.240173
vt 0.474761 0.286790
vt 0.863754 1.021924
vt 0.700205 1.000000
vt 0.165737 0.966907
vt 0.399905 0.332301
vt 0.279150 0.961134
vt 0.029317 0.405984
vt -0.004113 0.160476
vt 0.930305 0.967522
vt 0.782081 1.016453
vt 0.565660 0.945722
vt 0.462350 0.948722
vt 0.444722 0.833333
vt 0.103421 0.500000
vt 0.103421 0.666667
vt 0.103421 0.833333
vt 0.462575 0.666667
vt 0.458513 0.500000
vt 0.024599 0.252086
vt 0.073044 0.084970
vt 0.313176 0.039736
vt 0.321643 0.245739
vt 0.150605 -0.039025
vt 0.377258 0.998674
vt 0.460454 0.666667
vt 0.460454 0.500000
vt 0.095143 0.319604
vt 0.083935 0.397172
vt 0.084148 0.108322
vt 0.171353 -0.017389
s 1
f 18/1/1 2/2/2 4/3/3 19/4/4
f 19/4/4 4/3/3 6/5/5 21/6/6
f 21/6/6 6/5/5 8/7/7 22/8/8
f 22/8/8 8/7/9 10/9/10 24/10/11
f 25/11/12 12/12/13 14/13/14 26/14/15
f 4/15/3 29/16/16 8/17/7 6/18/5
f 25/11/12 26/19/15 13/20/17 11/21/18
f 27/22/19 16/23/20 2/24/2 18/25/1
f 26/14/15 14/13/14 16/23/20 27/26/19
f 13/20/17 26/19/15 27/26/19 15/27/21
f 9/28/22 24/29/11 25/30/12 11/21/18
f 7/31/23 23/32/24 24/29/11 9/28/22
f 23/32/24 22/8/8 24/29/11
f 1/33/25 17/34/26 20/35/27 81/36/28 3/37/28
f 17/34/26 18/1/1 19/4/4 20/35/27
f 14/38/14 28/39/29 16/40/20
f 16/40/20 28/39/29 29/16/30 2/41/2
f 2/41/2 29/16/30 4/15/3
f 10/42/10 8/17/9 29/16/31 28/39/32
f 12/43/13 10/42/10 28/39/32 14/38/14
f 45/1/33 31/2/34 32/3/35 46/4/36
f 46/4/36 32/3/35 34/5/37 47/6/38
f 47/6/38 34/5/37 36/7/39 49/8/40
f 49/8/40 36/7/39 38/9/41 51/10/42
f 51/10/42 38/9/41 39/12/43 53/44/44
f 32/15/35 58/17/45 34/18/37
f 54/14/46 41/13/47 43/23/48 56/22/49
f 56/22/49 43/23/48 31/24/34 45/25/33
f 42/27/50 57/26/51 44/45/52 30/46/53
f 57/26/51 56/22/49 45/25/33 44/45/52
f 40/20/54 55/19/55 57/26/51 42/27/50
f 55/19/55 54/14/46 56/22/49 57/26/51
f 35/31/56 50/32/57 52/29/58 37/28/59
f 50/32/57 49/8/40 51/10/42 52/29/58
f 33/47/60 48/48/61 50/32/57 35/31/56
f 48/48/61 47/6/38 49/8/40 50/32/57
f 48/49/61 66/49/62 67/49/63
f 46/4/36 47/6/38 48/48/61 67/50/63
f 44/34/52 45/1/33 46/51/36 68/52/64
f 41/38/47 58/39/45 43/40/48
f 43/40/48 58/16/45 31/41/34
f 31/41/34 58/16/45 32/15/35
f 36/53/65 58/17/45 38/54/66
f 34/18/37 58/17/45 36/53/65
f 39/43/67 38/42/66 58/39/45 41/38/47
f 21/2/68 59/3/69 65/4/70
f 87/55/71 71/56/72 60/57/73
f 65/4/70 59/3/69 87/58/71 91/59/74
f 90/60/75 62/61/76 71/39/72 64/62/77
f 90/63/75 94/64/78 93/65/79 92/66/80
f 91/67/74 87/68/71 60/69/73 67/8/81
f 70/22/82 64/70/77 21/25/68
f 63/71/83 69/72/84 70/26/82 5/27/85
f 60/57/73 71/73/72 62/54/76
f 89/74/86 94/64/78 69/72/84 63/71/83
f 69/72/84 64/70/77 70/26/82
f 91/75/87 75/5/88 65/53/89
f 74/3/90 75/5/88 91/76/87
f 64/77/77 71/16/72 21/41/68
f 21/41/68 71/16/72 59/15/69
f 61/28/91 68/29/92 93/65/79 88/78/93
f 48/51/94 74/4/90 91/79/87 66/50/95
f 68/29/92 46/10/96 92/66/80 93/65/79
f 21/1/6 65/53/97 19/54/4
f 19/54/98 86/42/99 77/14/100 20/80/101
f 74/15/90 84/16/102 85/17/103 75/18/88
f 78/27/104 83/26/105 80/45/106 72/46/107
f 83/26/105 79/22/108 73/25/109 80/45/106
f 76/20/110 82/19/111 83/26/105 78/27/104
f 82/19/111 77/14/100 79/22/108 83/26/105
f 3/21/112 81/30/113 82/19/111 76/20/110
f 81/30/113 20/81/101 77/14/100 82/19/111
f 66/48/114 91/82/74 67/83/81
f 72/33/107 80/34/106 48/51/94 33/37/115
f 80/34/106 73/1/109 74/4/90 48/51/94
f 79/40/108 77/39/100 84/16/102 73/41/109
f 73/41/109 84/16/102 74/15/90
f 65/53/89 85/17/103 86/42/99 19/54/98
f 75/18/88 85/17/103 65/53/89
f 86/42/99 85/17/103 84/16/102 77/39/100
f 62/9/76 46/10/96 67/8/81 60/69/73
f 30/33/53 44/34/52 68/52/64 61/84/116
f 7/31/23 5/27/117 70/26/118 23/32/24
f 23/32/24 70/26/118 21/6/6 22/8/8
f 94/64/78 89/74/86 88/78/93 93/65/79
f 90/63/75 64/85/77 69/72/84 94/64/78
f 59/15/69 71/86/72 87/87/71
f 62/61/76 90/60/75 92/66/80 46/10/96
f 96/2/119 98/88/120 110/4/121
f 110/4/121 98/89/120 112/6/122
f 112/6/122 98/89/120 101/7/123 113/8/124
f 113/8/124 101/7/123 103/9/125 114/10/126
f 114/10/126 103/9/125 105/12/127 115/11/128
f 107/90/129 96/25/119 109/45/130
f 98/91/120 117/16/131 101/17/132
f 107/90/129 109/45/130 108/27/133 116/19/134
f 115/11/128 105/12/127 107/92/129
f 104/21/135 115/30/128 116/19/134 106/20/136
f 106/20/136 116/19/134 108/27/133
f 102/28/137 114/29/126 115/30/128 104/21/135
f 100/31/138 113/32/124 114/29/126 102/28/137
f 95/33/139 109/34/130 111/51/140 161/36/141 97/37/141
f 109/34/130 96/1/119 110/4/121 111/51/140
f 107/93/129 117/16/131 96/41/119
f 96/41/119 117/16/131 98/91/120
f 103/42/142 101/17/132 117/39/131
f 105/43/127 103/42/142 117/39/131 107/94/129
f 128/1/143 119/95/144 129/4/145
f 129/4/145 119/95/144 121/96/146 130/6/147
f 130/6/147 121/97/146 132/8/148
f 132/8/148 124/98/149 54/99/150 134/29/151
f 126/100/152 137/101/153 127/45/154 118/46/155
f 137/101/153 136/102/156 128/25/143 127/45/154
f 125/20/157 135/19/158 137/101/153 126/100/152
f 135/19/158 53/14/159 136/102/156 137/101/153
f 37/28/59 52/29/58 135/103/160 125/104/161
f 52/29/58 51/10/42 53/44/44 135/103/160
f 122/31/162 133/32/163 134/29/151 123/28/164
f 120/47/165 131/48/166 133/32/163 122/31/162
f 131/48/166 130/6/147 132/8/148 133/32/163
f 131/49/166 145/49/167 146/49/168
f 129/4/145 130/6/147 131/48/166 146/50/168
f 127/34/154 128/1/143 129/51/145 147/52/169
f 39/43/170 41/38/171 177/105/172 176/106/173
f 121/107/146 119/108/144 124/109/174
f 41/12/171 124/98/149 177/110/172
f 112/2/175 138/3/176 144/4/177
f 168/55/178 150/56/179 139/57/180
f 144/4/177 138/3/176 168/58/178 172/59/181
f 171/60/182 141/61/183 150/39/179 143/62/184
f 171/63/182 175/64/185 174/65/186 173/66/187
f 172/67/181 168/68/178 139/69/180 146/8/188
f 149/22/189 143/70/184 112/25/175
f 142/71/190 148/72/191 149/26/189 99/27/192
f 139/57/180 150/73/179 141/54/183
f 170/74/193 175/64/185 148/72/191 142/71/190
f 148/72/191 143/70/184 149/26/189
f 172/75/194 154/5/195 144/53/196
f 153/3/197 154/5/195 172/76/194
f 143/77/184 150/16/179 112/41/175
f 112/41/175 150/16/179 138/15/176
f 140/28/198 147/29/199 174/65/186 169/78/200
f 131/51/201 153/4/197 172/79/194 145/50/202
f 147/29/199 129/10/203 173/66/187 174/65/186
f 112/1/122 144/53/204 110/54/121
f 111/10/205 110/9/206 155/12/207
f 111/11/205 155/12/207 157/14/208
f 153/15/197 165/16/209 166/17/210 154/18/195
f 158/27/211 163/26/212 160/45/213 151/46/214
f 163/26/212 159/22/215 152/25/216 160/45/213
f 156/20/217 162/19/218 163/26/212 158/27/211
f 162/19/218 157/14/208 159/22/215 163/26/212
f 97/21/219 161/30/220 162/19/218 156/20/217
f 161/30/220 111/11/205 157/14/208 162/19/218
f 145/48/221 172/82/181 146/83/188
f 151/33/214 160/34/213 131/51/201 120/37/222
f 160/34/213 152/1/216 153/4/197 131/51/201
f 157/38/208 164/39/223 159/40/215
f 110/54/206 167/42/224 155/43/207
f 159/40/215 164/39/223 165/16/209 152/41/216
f 152/41/216 165/16/209 153/15/197
f 144/53/196 166/17/210 167/42/224 110/54/206
f 154/18/195 166/17/210 144/53/196
f 167/42/224 166/17/210 165/16/209 164/39/223
f 155/43/207 167/42/224 164/39/223 157/38/208
f 141/9/183 129/10/203 146/8/188 139/69/180
f 118/33/155 127/34/154 147/52/169 140/84/225
f 100/31/138 99/27/226 149/26/227 113/32/124
f 113/32/124 149/26/227 112/6/122
f 175/64/185 170/74/193 169/78/200 174/65/186
f 171/63/182 143/85/184 148/72/191 175/64/185
f 138/15/176 150/86/179 168/87/178
f 141/61/183 171/60/182 173/66/187 129/10/203
f 123/28/164 134/29/151 55/111/228 40/112/229
f 177/105/230 119/113/144 176/114/173
f 177/115/230 124/116/174 119/113/144
f 119/113/144 128/25/143 136/102/156 176/114/173
f 39/43/170 176/106/173 136/102/156 53/14/159
f 95/46/139 108/27/133 109/45/130
f 116/19/134 115/11/128 107/92/129
f 124/98/149 41/12/171 54/99/150
f 133/32/163 132/8/148 134/29/151
f 132/8/148 121/97/231 124/98/149
f 55/111/228 134/29/151 54/99/150
f 27/22/19 18/25/1 17/45/26 1/46/25 15/27/21
f 24/10/11 10/9/10 12/12/13 25/30/12
