# Blender 3.6.2
# www.blender.org
mtllib Rock_1.mtl
o Cylinder.029
v -0.577253 -1.158551 0.435264
v -0.313483 0.184912 0.430997
v 0.295133 0.328428 0.343689
v 0.588321 -1.158551 0.360096
v 0.662919 -1.156510 0.655661
v 0.387971 0.755911 0.664154
v 0.501430 -1.156510 1.064098
v 0.370366 0.692689 0.884393
v 0.111575 -1.156510 1.334789
v 0.151644 0.680748 0.946180
v -0.426082 -1.156510 1.264982
v -0.255256 0.038482 1.060238
v -0.682055 -1.156510 0.782240
v -0.442117 -0.095960 0.772717
v -0.525723 -0.491884 0.424663
v 0.536062 -0.491884 0.361724
v 0.553014 -0.202457 0.818102
v 0.060655 -0.206643 1.308034
v 0.135570 0.744402 0.537514
v -0.917078 -1.158551 0.173612
v -0.564270 1.049865 -0.490613
v -1.015721 -1.158551 -0.585372
v -0.548790 -1.158551 -1.191805
v -0.189459 1.458949 -0.902523
v 0.210194 -1.158551 -1.290448
v 0.117773 1.655185 -0.947660
v 0.816627 -1.158551 -0.823518
v 0.361120 1.682462 -0.749965
v 0.915270 -1.158551 -0.064534
v 0.563956 0.886413 -0.159292
v 0.266926 0.687944 0.226479
v -0.145052 0.927114 0.156736
v -0.881259 -0.491884 0.150913
v -0.730103 0.373818 0.066158
v -0.807553 0.377305 -0.529765
v -0.975754 -0.491884 -0.576152
v -0.440938 0.377305 -1.005912
v -0.528460 -0.491884 -1.157082
v 0.154985 0.380053 -1.083363
v 0.198605 -0.491884 -1.251576
v 0.631132 0.377305 -0.716747
v 0.779535 -0.491884 -0.804282
v 0.708583 0.374736 -0.120824
v 0.874030 -0.491884 -0.077217
v 0.033467 1.600314 -0.345873
v -0.239262 1.565911 -0.601015
v 0.228381 1.657001 -0.515276
v -0.009577 0.633836 0.767382
vn 0.6074 0.3194 -0.7274
vn 0.8639 0.3188 -0.3900
vn 0.9496 0.1668 0.2653
vn 0.9340 0.1758 0.3109
vn 0.1150 0.8170 0.5650
vn -0.2068 0.7305 0.6509
vn 0.1149 0.2170 0.9694
vn -0.6787 0.3763 0.6307
vn -0.2430 0.8479 -0.4711
vn -0.9248 0.3368 0.1772
vn -0.8236 0.5169 -0.2334
vn -0.9730 0.2160 -0.0809
vn -0.9767 0.1690 0.1319
vn -0.9549 0.0692 -0.2888
vn -0.6033 0.1514 0.7831
vn 0.2464 0.0405 0.9683
vn 0.7792 0.0663 0.6232
vn 0.9934 0.0866 0.0754
vn 0.9798 0.1146 -0.1637
vn 0.9696 0.1673 -0.1787
vn -0.7085 0.6743 0.2082
vn -0.0773 0.9776 0.1957
vn -0.8002 0.3364 0.4965
vn -0.8751 0.4839 0.0070
vn -0.9375 0.2554 -0.2362
vn -0.5536 0.4350 -0.7101
vn -0.5190 0.2061 -0.8296
vn 0.3437 0.1168 -0.9318
vn 0.2519 0.1588 -0.9546
vn 0.6116 0.1040 -0.7843
vn 0.8640 0.1880 -0.4671
vn 0.8538 0.4383 0.2810
vn 0.8375 0.3855 0.3872
vn 0.9268 0.2332 0.2944
vn 0.3874 0.3914 0.8347
vn 0.4984 0.2877 0.8178
vn -0.6403 0.7646 0.0736
vn -0.4078 0.3017 0.8618
vn -0.2488 0.5433 0.8018
vn -0.6090 0.0596 0.7909
vn -0.6053 0.1259 0.7860
vn -0.8600 0.1280 0.4940
vn -0.8648 0.0634 0.4981
vn 0.9633 0.0645 0.2604
vn 0.9541 0.1343 0.2677
vn 0.7701 0.1368 0.6231
vn 0.7909 0.0605 0.6090
vn 0.8655 0.0625 -0.4970
vn 0.8597 0.1267 -0.4949
vn 0.2603 0.0607 -0.9636
vn 0.2579 0.1265 -0.9579
vn -0.4978 0.0602 -0.8652
vn -0.4946 0.1268 -0.8598
vn -0.9638 0.0614 -0.2594
vn -0.9575 0.1274 -0.2586
vn -0.0906 0.8119 0.5767
vn 0.6242 0.5391 0.5655
vn -0.2947 0.9525 -0.0769
vn -0.1885 0.9804 0.0568
vn -0.1803 0.9827 0.0420
vt 0.727245 0.964544
vt 0.610186 1.015610
vt 0.625000 0.833333
vt 0.536656 0.893972
vt 0.484595 1.021460
vt 0.375000 1.000000
vt 0.375000 0.833333
vt 0.252004 0.934380
vt 0.398200 0.441105
vt 0.294520 0.382518
vt 0.305654 0.173641
vt 0.113803 1.016611
vt 0.000000 0.963493
vt 0.000000 0.833333
vt 0.125000 0.666667
vt 0.000000 0.666667
vt 0.000000 0.500000
vt 0.136873 0.900931
vt 0.250000 0.666667
vt 0.375000 0.500000
vt 0.375000 0.666667
vt 0.250000 0.500000
vt 0.500000 0.666667
vt 0.625000 0.500000
vt 0.625000 0.666667
vt 0.500000 0.500000
vt 0.750000 0.500000
vt 0.750000 0.666667
vt 0.777110 0.838441
vt 0.082469 0.400785
vt 0.121220 0.320903
vt 0.259458 0.527639
vt 0.169956 0.090003
vt 0.245153 0.074116
vt 1.000000 0.833333
vt 0.875000 1.000000
vt 0.875000 0.833333
vt 0.704159 0.996387
vt 0.750000 0.833333
vt 0.625000 0.990148
vt 0.545391 1.000000
vt 0.500000 0.833333
vt 0.250000 1.000000
vt 0.234086 0.842235
vt 0.419706 0.419706
vt 0.375057 0.222619
vt 0.467761 0.185943
vt 0.093085 0.388828
vt 0.112260 0.797086
vt 0.127162 1.094099
vt 0.070046 0.500000
vt 0.076502 0.666667
vt 1.000000 0.666667
vt 0.875000 0.500000
vt 0.875000 0.666667
vt 1.000000 0.500000
vt 0.010000 0.250000
vt 0.125318 0.311008
vt 0.311625 0.035526
vt 0.163779 0.178374
vt 0.080294 0.080294
vt 0.294648 0.382210
vt 0.250000 0.490000
vt 0.429357 0.075328
vt 0.000000 0.000000
vt 0.091504 0.212065
vt 0.044355 0.271901
vt 0.000000 1.000000
s 1
usemtl IslandBottom
f 3/1/1 6/2/2 17/3/3
f 17/3/3 6/2/2 8/4/4
f 8/5/5 10/6/6 18/7/7
f 18/7/7 10/6/6 12/8/8
f 3/9/1 19/10/9 6/11/2
f 14/12/10 2/13/11 15/14/12
f 13/15/13 15/16/12 1/17/14
f 13/15/13 14/18/10 15/16/12
f 11/19/15 12/8/8 14/18/10 13/15/13
f 9/20/16 18/21/7 11/22/15
f 18/7/7 12/8/8 11/19/15
f 7/23/17 18/21/7 9/20/16
f 5/24/18 17/25/3 7/26/17
f 4/27/19 16/28/20 17/25/3 5/24/18
f 16/28/20 3/29/1 17/25/3
f 14/30/10 48/31/21 19/10/9 2/32/11
f 6/11/22 10/33/6 8/34/5
f 10/33/6 6/11/22 19/10/9
f 34/35/23 21/36/24 35/37/25
f 35/37/25 21/36/24 24/38/26 37/39/27
f 37/39/27 24/38/26 26/40/28 39/3/29
f 39/3/29 26/40/28 28/41/30 41/42/31
f 41/42/31 28/41/32 30/6/33 43/7/34
f 43/7/34 30/6/33 31/43/35 3/44/36
f 21/45/24 46/46/37 24/47/26
f 2/32/38 3/9/36 31/43/35 32/48/39
f 2/49/38 32/50/39 34/14/23
f 1/51/40 15/52/41 33/16/42 20/17/43
f 34/35/23 33/53/42 15/52/41 2/13/38
f 29/20/44 44/21/45 16/28/46 4/27/47
f 27/26/48 42/23/49 44/21/45 29/20/44
f 42/23/49 41/42/31 43/7/34 44/21/45
f 25/24/50 40/25/51 42/23/49 27/26/48
f 40/25/51 39/3/29 41/42/31 42/23/49
f 23/27/52 38/28/53 40/25/51 25/24/50
f 38/28/53 37/39/27 39/3/29 40/25/51
f 22/54/54 36/55/55 38/28/53 23/27/52
f 36/55/55 35/37/25 37/39/27 38/28/53
f 20/56/43 33/53/42 36/55/55 22/54/54
f 33/53/42 34/35/23 35/37/25 36/55/55
f 31/57/35 45/58/56 32/48/39
f 28/59/32 47/60/57 30/61/33
f 32/48/39 45/58/56 46/62/37 21/63/24
f 26/64/58 46/46/37 47/60/59 28/59/60
f 24/47/26 46/46/37 26/64/58
f 47/60/59 46/62/37 45/58/56
f 30/61/33 47/60/57 45/58/56 31/57/35
f 19/10/9 3/9/1 2/32/11
f 43/65/34 3/65/36 16/65/46 44/65/45
f 10/66/6 48/31/21 12/67/8
f 19/10/9 48/31/21 10/66/6
f 48/31/21 14/30/10 12/67/8
f 34/14/23 32/50/39 21/68/24
f 17/3/3 8/4/4 18/21/7 7/23/17
