# Blender 3.4.1
# www.blender.org
mtllib Bullet.mtl
o Cylinder.004
v 0.000000 0.040590 -0.066977
v 0.038604 0.012543 -0.066977
v 0.023858 -0.032838 -0.066977
v -0.023858 -0.032838 -0.066977
v -0.038604 0.012543 -0.066977
v 0.000000 0.023506 0.047237
v 0.000000 0.040590 0.019739
v 0.022356 0.007264 0.047237
v 0.038604 0.012543 0.019739
v 0.013817 -0.019017 0.047237
v 0.023858 -0.032838 0.019739
v -0.013817 -0.019017 0.047237
v -0.023858 -0.032838 0.019739
v -0.022356 0.007264 0.047237
v -0.038604 0.012543 0.019739
vn -0.7639 0.2482 -0.5957
vn -0.9207 0.2992 0.2506
vn -0.0000 0.9681 0.2506
vn -0.0000 0.8032 -0.5957
vn 0.4721 -0.6498 -0.5957
vn 0.5690 -0.7832 0.2506
vn -0.5690 -0.7832 0.2506
vn -0.4721 -0.6498 -0.5957
vn 0.9207 0.2992 0.2506
vn 0.7639 0.2482 -0.5957
vn -0.0000 0.6060 0.7954
vn 0.5764 0.1873 0.7954
vn 0.3562 -0.4903 0.7954
vn -0.3562 -0.4903 0.7954
vn -0.5764 0.1873 0.7954
vt 0.000000 0.500000
vt 1.000000 0.500000
vt 0.750000 0.490000
vt 0.800000 0.500000
vt 0.978254 0.324164
vt 0.600000 0.500000
vt 0.891068 0.055836
vt 0.400000 0.500000
vt 0.608932 0.055836
vt 0.200000 0.500000
vt 0.521746 0.324164
vt 0.250000 0.364783
vt 0.000000 0.894476
vt 1.000000 0.894476
vt 0.250000 0.490000
vt 0.359165 0.285470
vt 0.800000 0.894476
vt 0.478254 0.324164
vt 0.317468 0.157139
vt 0.600000 0.894476
vt 0.391068 0.055836
vt 0.182532 0.157139
vt 0.400000 0.894476
vt 0.108932 0.055836
vt 0.140835 0.285470
vt 0.200000 0.894476
vt 0.021746 0.324164
s 1
usemtl Bullet
f 5/10/1 15/26/2 7/13/3 1/1/4
f 3/6/5 11/20/6 13/23/7 4/8/8
f 4/8/8 13/23/7 15/26/2 5/10/1
f 1/2/4 7/14/3 9/17/9 2/4/10
f 2/4/10 9/17/9 11/20/6 3/6/5
f 1/3/4 2/5/10 3/7/5 4/9/8 5/11/1
f 9/18/9 7/15/3 6/12/11 8/16/12
f 11/21/6 9/18/9 8/16/12 10/19/13
f 13/24/7 11/21/6 10/19/13 12/22/14
f 15/27/2 13/24/7 12/22/14 14/25/15
f 7/15/3 15/27/2 14/25/15 6/12/11
f 8/16/12 6/12/11 14/25/15 12/22/14 10/19/13
