# Blender 3.4.1
# www.blender.org
mtllib EnemyTankBase.mtl
o Cube.011
v -0.180185 -0.142983 0.259816
v -0.180185 -0.035371 0.380316
v -0.180185 -0.101614 0.352877
v -0.180185 0.038467 0.380316
v -0.180185 0.132148 0.286635
v -0.180185 0.104709 0.352877
v -0.180185 -0.035371 -0.380316
v -0.180185 -0.142983 -0.259816
v -0.180185 -0.101614 -0.352878
v -0.180185 0.132148 -0.286635
v -0.180185 0.038467 -0.380316
v -0.180185 0.104709 -0.352878
v 0.180185 -0.035371 0.380316
v 0.180185 -0.142983 0.259816
v 0.180185 -0.101614 0.352877
v 0.180185 0.132148 0.286635
v 0.180185 0.038467 0.380316
v 0.180185 0.104709 0.352877
v 0.180185 -0.142983 -0.259816
v 0.180185 -0.035371 -0.380316
v 0.180185 -0.101614 -0.352878
v 0.180185 0.038467 -0.380316
v 0.180185 0.132148 -0.286635
v 0.180185 0.104709 -0.352878
v 0.180185 -0.112276 -0.363540
v 0.180185 -0.142983 -0.289406
v -0.180185 -0.142983 -0.289406
v -0.180185 -0.112276 -0.363540
v 0.180185 -0.038142 -0.394247
v -0.180185 -0.038142 -0.394247
v -0.180185 0.115372 -0.363540
v -0.180185 0.146079 -0.289406
v 0.180185 0.146079 -0.289406
v 0.180185 0.115372 -0.363540
v -0.180185 0.041238 -0.394247
v 0.180185 0.041238 -0.394247
v -0.180185 -0.112276 0.363539
v -0.180185 -0.142983 0.289406
v 0.180185 -0.142983 0.289406
v 0.180185 -0.112276 0.363539
v -0.180185 -0.038142 0.394247
v 0.180185 -0.038142 0.394247
v 0.180185 0.115372 0.363539
v 0.180185 0.146079 0.289406
v -0.180185 0.146079 0.289406
v -0.180185 0.115372 0.363539
v 0.180185 0.041238 0.394247
v -0.180185 0.041238 0.394247
v 0.266771 -0.101614 -0.352878
v 0.266771 -0.142983 -0.259816
v -0.266771 -0.142983 -0.259816
v -0.266771 -0.101614 -0.352878
v 0.266771 -0.035371 -0.380316
v -0.266771 -0.035371 -0.380316
v -0.266771 0.104709 -0.352878
v -0.266771 0.132148 -0.286635
v 0.266771 0.132148 -0.286635
v 0.266771 0.104709 -0.352878
v -0.266771 0.038467 -0.380316
v 0.266771 0.038467 -0.380316
v -0.266771 -0.101614 0.352877
v -0.266771 -0.142983 0.259816
v 0.266771 -0.142983 0.259816
v 0.266771 -0.101614 0.352877
v -0.266771 -0.035371 0.380316
v 0.266771 -0.035371 0.380316
v 0.266771 0.104709 0.352877
v 0.266771 0.132148 0.286635
v -0.266771 0.132148 0.286635
v -0.266771 0.104709 0.352877
v 0.266771 0.038467 0.380316
v -0.266771 0.038467 0.380316
vn 0.7921 -0.1191 0.5986
vn 0.7921 0.1191 0.5986
vn -0.7921 0.1191 0.5986
vn -0.7921 -0.1191 0.5986
vn -0.8915 0.3203 -0.3203
vn -0.8578 0.1003 -0.5042
vn -0.7921 0.1191 -0.5986
vn -0.7631 0.4570 -0.4570
vn 0.7921 0.5986 -0.1191
vn -0.7921 0.5986 -0.1191
vn -0.7921 0.5986 0.1191
vn 0.7921 0.5986 0.1191
vn -0.8915 0.3203 0.3203
vn -0.8578 0.5042 0.1003
vn -0.7631 0.4570 0.4570
vn -0.7921 -0.1191 -0.5986
vn 0.7921 0.1191 -0.5986
vn 0.7921 -0.1191 -0.5986
vn 0.7921 -0.5986 -0.1191
vn -0.7921 -0.5986 -0.1191
vn -0.7631 -0.4570 -0.4570
vn 0.7631 -0.4570 -0.4570
vn 0.7631 0.4570 -0.4570
vn -0.7921 -0.5986 0.1191
vn 0.7921 -0.5986 0.1191
vn 0.7631 -0.4570 0.4570
vn -0.7631 -0.4570 0.4570
vn 0.7631 0.4570 0.4570
vn -0.0980 -0.9899 0.1027
vn 0.0980 -0.9899 0.1027
vn 0.0980 -0.9899 -0.1027
vn -0.0980 -0.9899 -0.1027
vn 0.8894 -0.3191 -0.3274
vn -0.8894 -0.3191 -0.3274
vn 0.8578 -0.1003 -0.5042
vn -0.8578 -0.1003 -0.5042
vn -0.8578 0.5042 -0.1003
vn 0.8578 0.5042 -0.1003
vn 0.8915 0.3203 -0.3203
vn 0.8578 0.1003 -0.5042
vn -0.8894 -0.3191 0.3274
vn 0.8894 -0.3191 0.3274
vn -0.8578 -0.1003 0.5042
vn 0.8578 -0.1003 0.5042
vn 0.8915 0.3203 0.3203
vn 0.8578 0.5042 0.1003
vn 0.8578 0.1003 0.5042
vn -0.8578 0.1003 0.5042
vn 0.7901 -0.5996 -0.1273
vn 0.7649 -0.4496 -0.4613
vn 0.7649 -0.4496 0.4613
vn 0.7901 -0.5996 0.1273
vn -0.7901 -0.5996 0.1273
vn -0.7649 -0.4496 0.4613
vn -0.7649 -0.4496 -0.4613
vn -0.7901 -0.5996 -0.1273
vt 0.170491 0.318505
vt 0.167574 0.170491
vt 0.017668 0.454983
vt 0.167574 0.454983
vt 0.052466 0.370971
vt 0.167574 0.052466
vt 0.167574 0.370971
vt 0.017668 0.548627
vt 0.167574 0.548627
vt 0.136478 0.667437
vt 0.167574 0.136478
vt 0.167574 0.052466
vt 0.052466 0.632638
vt 0.167574 0.632638
vt 0.982332 0.454983
vt 0.167574 0.454983
vt 0.829509 0.318505
vt 0.167574 0.829509
vt 0.947534 0.370971
vt 0.167574 0.947534
vt 0.167574 0.370971
vt 0.863522 0.667437
vt 0.167574 0.863522
vt 0.982332 0.548627
vt 0.167574 0.548627
vt 0.167574 0.632638
vt 0.947534 0.632638
vt 0.167574 0.947534
vt 0.017668 0.454983
vt 0.832426 0.454983
vt 0.170491 0.318505
vt 0.832426 0.170491
vt 0.052466 0.370971
vt 0.832426 0.052466
vt 0.832426 0.370971
vt 0.136478 0.667437
vt 0.832426 0.136478
vt 0.017668 0.548627
vt 0.832426 0.548627
vt 0.052466 0.632638
vt 0.832426 0.632638
vt 0.832426 0.052466
vt 0.829509 0.318505
vt 0.832426 0.829509
vt 0.982332 0.454983
vt 0.832426 0.454983
vt 0.947534 0.370971
vt 0.832426 0.947534
vt 0.832426 0.370971
vt 0.982332 0.548627
vt 0.832426 0.548627
vt 0.863522 0.667437
vt 0.832426 0.863522
vt 0.947534 0.632638
vt 0.832426 0.632638
vt 0.832426 0.947534
vt 0.832426 0.961056
vt 0.832426 0.357449
vt 0.961056 0.357449
vt 0.832426 0.867036
vt 0.867036 0.318505
vt 0.167574 0.867036
vt 0.867036 0.318505
vt 0.167574 0.961056
vt 0.167574 0.357449
vt 0.961056 0.357449
vt 0.832426 0.451468
vt 1.000000 0.451468
vt 0.167574 0.451468
vt 1.000000 0.451468
vt 0.167574 0.961056
vt 0.167574 0.646161
vt 0.961056 0.646161
vt 0.167574 0.867036
vt 0.867036 0.685105
vt 0.832426 0.867036
vt 0.867036 0.685105
vt 0.832426 0.961056
vt 0.832426 0.646161
vt 0.961056 0.646161
vt 0.167574 0.552141
vt 1.000000 0.552141
vt 0.832426 0.552141
vt 1.000000 0.552141
vt 0.167574 0.038944
vt 0.167574 0.357449
vt 0.038944 0.357449
vt 0.167574 0.132964
vt 0.132964 0.318505
vt 0.832426 0.132964
vt 0.132964 0.318505
vt 0.832426 0.038944
vt 0.832426 0.357449
vt 0.038944 0.357449
vt 0.167574 0.451468
vt 0.000000 0.451468
vt 0.832426 0.451468
vt 0.000000 0.451468
vt 0.832426 0.038944
vt 0.832426 0.646161
vt 0.038944 0.646161
vt 0.832426 0.132964
vt 0.132964 0.685105
vt 0.167574 0.132964
vt 0.132964 0.685105
vt 0.167574 0.038944
vt 0.167574 0.646161
vt 0.038944 0.646161
vt 0.832426 0.552141
vt 0.000000 0.552141
vt 0.167574 0.552141
vt 0.000000 0.552141
vt 0.947534 0.370971
vt 0.992172 0.947534
vt 0.992172 0.370971
vt 0.829509 0.318505
vt 0.992172 0.829509
vt 0.829509 0.318505
vt 0.007828 0.829509
vt 0.947534 0.370971
vt 0.007828 0.947534
vt 0.007828 0.370971
vt 0.982332 0.454983
vt 0.992172 0.454983
vt 0.982332 0.454983
vt 0.007828 0.454983
vt 0.007828 0.632638
vt 0.947534 0.632638
vt 0.007828 0.947534
vt 0.863522 0.667437
vt 0.007828 0.863522
vt 0.863522 0.667437
vt 0.992172 0.863522
vt 0.947534 0.632638
vt 0.992172 0.632638
vt 0.992172 0.947534
vt 0.982332 0.548627
vt 0.007828 0.548627
vt 0.982332 0.548627
vt 0.992172 0.548627
vt 0.052466 0.370971
vt 0.007828 0.052466
vt 0.007828 0.370971
vt 0.170491 0.318505
vt 0.007828 0.170491
vt 0.170491 0.318505
vt 0.992172 0.170491
vt 0.052466 0.370971
vt 0.992172 0.052466
vt 0.992172 0.370971
vt 0.017668 0.454983
vt 0.007828 0.454983
vt 0.017668 0.454983
vt 0.992172 0.454983
vt 0.052466 0.632638
vt 0.992172 0.632638
vt 0.992172 0.052466
vt 0.136478 0.667437
vt 0.992172 0.136478
vt 0.136478 0.667437
vt 0.007828 0.136478
vt 0.007828 0.052466
vt 0.052466 0.632638
vt 0.007828 0.632638
vt 0.017668 0.548627
vt 0.992172 0.548627
vt 0.017668 0.548627
vt 0.007828 0.548627
s 1
usemtl EnemyBaseColor
f 12/26/5 11/25/6 59/138/7 55/127/8
f 6/12/13 5/11/14 69/161/11 70/162/15
f 50/116/49 49/113/50 53/123/18 60/139/17 58/134/23 57/132/9 68/158/12 67/155/28 71/165/2 66/153/1 64/148/51 63/146/52
f 62/144/53 61/141/54 65/151/4 72/167/3 70/163/15 69/160/11 56/130/10 55/128/8 59/137/7 54/125/16 52/120/55 51/118/56
f 20/46/35 22/51/40 60/140/17 53/124/18
f 18/41/45 17/39/47 71/166/2 67/156/28
f 22/51/40 24/55/39 58/135/23 60/140/17
f 8/18/32 1/2/29 62/145/53 51/119/56
f 19/44/31 21/48/33 49/114/50 50/117/49
f 4/9/48 6/14/13 70/164/15 72/168/3
f 1/2/29 3/6/41 61/142/54 62/145/53
f 14/32/30 19/44/31 50/117/49 63/147/52
f 9/20/34 8/18/32 51/119/56 52/121/55
f 2/4/43 4/9/48 72/168/3 65/152/4
f 15/34/42 14/32/30 63/147/52 64/149/51
f 21/49/33 20/46/35 53/124/18 49/115/50
f 5/11/14 10/23/37 56/131/10 69/161/11
f 3/7/41 2/4/43 65/152/4 61/143/54
f 7/16/36 9/21/34 52/122/55 54/126/16
f 11/25/6 7/16/36 54/126/16 59/138/7
f 13/30/44 15/35/42 64/150/51 66/154/1
f 10/23/37 12/28/5 55/129/8 56/131/10
f 17/39/47 13/30/44 66/154/1 71/166/2
f 16/37/46 18/42/45 67/157/28 68/159/12
f 24/56/39 23/53/38 57/133/9 58/136/23
f 23/53/38 16/37/46 68/159/12 57/133/9
usemtl EnemySecondaryColor
f 42/97/1 47/109/2 48/111/3 41/95/4
f 33/76/9 32/74/10 45/104/11 44/102/12
f 30/69/16 35/81/7 36/83/17 29/67/18
f 26/60/19 27/62/20 28/64/21 25/57/22
f 25/58/22 28/65/21 30/69/16 29/67/18
f 32/74/10 33/76/9 34/78/23 31/71/8
f 31/72/8 34/79/23 36/83/17 35/81/7
f 38/88/24 39/90/25 40/92/26 37/85/27
f 37/86/27 40/93/26 42/97/1 41/95/4
f 44/102/12 45/104/11 46/106/15 43/99/28
f 43/100/28 46/107/15 48/111/3 47/109/2
f 1/2/29 14/32/30 39/90/25 38/88/24
f 27/62/20 26/60/19 19/44/31 8/18/32
f 8/18/32 19/44/31 14/32/30 1/2/29
f 21/47/33 19/43/31 26/61/19 25/59/22
f 8/17/32 9/19/34 28/66/21 27/63/20
f 20/45/35 21/47/33 25/59/22 29/68/18
f 9/19/34 7/15/36 30/70/16 28/66/21
f 12/27/5 10/22/37 32/75/10 31/73/8
f 23/52/38 24/54/39 34/80/23 33/77/9
f 11/24/6 12/27/5 31/73/8 35/82/7
f 24/54/39 22/50/40 36/84/17 34/80/23
f 3/5/41 1/1/29 38/89/24 37/87/27
f 14/31/30 15/33/42 40/94/26 39/91/25
f 2/3/43 3/5/41 37/87/27 41/96/4
f 15/33/42 13/29/44 42/98/1 40/94/26
f 18/40/45 16/36/46 44/103/12 43/101/28
f 5/10/14 6/13/13 46/108/15 45/105/11
f 17/38/47 18/40/45 43/101/28 47/110/2
f 6/13/13 4/8/48 48/112/3 46/108/15
f 4/8/48 2/3/43 41/96/4 48/112/3
f 10/22/37 5/10/14 45/105/11 32/75/10
f 7/15/36 11/24/6 35/82/7 30/70/16
f 13/29/44 17/38/47 47/110/2 42/98/1
f 16/36/46 23/52/38 33/77/9 44/103/12
f 22/50/40 20/45/35 29/68/18 36/84/17
