# Blender 3.4.1
# www.blender.org
mtllib EnemyTankCannon.mtl
o Cylinder.002
v 0.000000 0.014396 0.092228
v 0.000000 0.045148 0.387743
v 0.025731 -0.000380 0.093765
v 0.025731 0.030372 0.389281
v 0.025731 -0.029932 0.096840
v 0.025731 0.000820 0.392356
v 0.000000 -0.044707 0.098378
v 0.000000 -0.013955 0.393894
v -0.025731 -0.029932 0.096840
v -0.025731 0.000820 0.392356
v -0.025731 -0.000380 0.093765
v -0.025731 0.030372 0.389281
v 0.039601 0.037916 0.384409
v 0.000000 0.060657 0.382042
v 0.039601 -0.007565 0.389142
v 0.000000 -0.030306 0.391508
v -0.039601 -0.007565 0.389142
v -0.039601 0.037916 0.384409
v 0.000000 0.014663 0.381851
v 0.042986 0.047510 0.457721
v 0.000000 0.072195 0.455152
v 0.042986 -0.001859 0.462859
v 0.000000 -0.026544 0.465427
v -0.042986 -0.001859 0.462859
v -0.042986 0.047510 0.457721
v 0.032378 0.041419 0.458354
v 0.000000 0.060012 0.456419
v 0.032378 0.004232 0.462224
v 0.000000 -0.014361 0.464158
v -0.032378 0.004232 0.462224
v -0.032378 0.041419 0.458354
v -0.135591 -0.133899 -0.137848
v -0.128561 -0.133899 -0.144878
v 0.128561 -0.133899 -0.144878
v 0.135591 -0.133899 -0.137848
v -0.128561 -0.133899 0.126303
v -0.135591 -0.133899 0.119273
v 0.135591 -0.133899 0.119273
v 0.128561 -0.133899 0.126303
v -0.121798 0.059275 0.105452
v -0.114739 0.059275 0.112510
v -0.075702 0.098431 0.059225
v -0.068513 0.098431 0.066415
v -0.105639 0.086963 0.089218
v -0.098506 0.086963 0.096351
v -0.068513 0.098431 -0.084990
v -0.075702 0.098431 -0.077800
v -0.114739 0.059275 -0.131086
v -0.121798 0.059275 -0.124027
v -0.098506 0.086963 -0.114926
v -0.105639 0.086963 -0.107793
v 0.068513 0.098431 0.066415
v 0.075702 0.098431 0.059225
v 0.114739 0.059275 0.112510
v 0.121798 0.059275 0.105452
v 0.098506 0.086963 0.096351
v 0.105639 0.086963 0.089218
v 0.075702 0.098431 -0.077800
v 0.068513 0.098431 -0.084990
v 0.121798 0.059275 -0.124027
v 0.114739 0.059275 -0.131086
v 0.105639 0.086963 -0.107793
v 0.098506 0.086963 -0.114926
vn -0.0000 0.9946 -0.1035
vn -0.0000 0.2968 -0.9549
vn 0.3413 0.1008 -0.9345
vn 0.8660 0.4973 -0.0518
vn 0.3413 -0.2911 -0.8937
vn 0.8660 -0.4973 0.0518
vn -0.0000 -0.4871 -0.8734
vn -0.0000 -0.9946 0.1035
vn -0.3413 -0.2911 -0.8937
vn -0.8660 -0.4973 0.0518
vn -0.0000 0.6397 -0.7686
vn 0.6199 0.2837 -0.7316
vn -0.3413 0.1008 -0.9345
vn -0.8660 0.4973 -0.0518
vn -0.6199 0.2837 -0.7316
vn -0.6992 0.4626 0.5452
vn -0.0000 0.8641 0.5034
vn 0.6199 -0.4283 -0.6575
vn -0.0000 -0.7842 -0.6205
vn -0.6199 -0.4283 -0.6575
vn -0.0000 -0.7419 0.6705
vn -0.6992 -0.3404 0.6287
vn 0.6992 0.4626 0.5452
vn 0.6992 -0.3404 0.6287
vn -0.0000 -0.2866 0.9581
vn -0.3327 -0.0955 0.9382
vn -0.3327 0.2866 0.8984
vn -0.0000 0.4777 0.8785
vn 0.3327 0.2866 0.8984
vn 0.3327 -0.0955 0.9382
vn -0.0000 0.1035 0.9946
vn 0.2087 0.7852 0.5830
vn -0.2087 0.7852 0.5830
vn -0.3712 0.3468 0.8613
vn 0.3712 0.3468 0.8613
vn 0.3712 0.3468 -0.8613
vn 0.3894 0.0933 -0.9163
vn -0.3894 0.0933 -0.9163
vn -0.3712 0.3468 -0.8613
vn -0.0471 0.9821 -0.1823
vn 0.0471 0.9821 -0.1823
vn 0.2087 0.7852 -0.5830
vn -0.2087 0.7852 -0.5830
vn -0.3894 0.0933 0.9163
vn 0.3894 0.0933 0.9163
vn 0.8613 0.3468 0.3712
vn 0.9163 0.0933 0.3894
vn 0.9163 0.0933 -0.3894
vn 0.8613 0.3468 -0.3712
vn 0.1823 0.9821 -0.0471
vn -0.1823 0.9821 -0.0471
vn -0.1823 0.9821 0.0471
vn -0.0471 0.9821 0.1823
vn 0.0471 0.9821 0.1823
vn 0.1823 0.9821 0.0471
vn 0.5830 0.7852 0.2087
vn 0.5830 0.7852 -0.2087
vn -0.5830 0.7852 -0.2087
vn -0.5830 0.7852 0.2087
vn -0.8613 0.3468 -0.3712
vn -0.8613 0.3468 0.3712
vn -0.9163 0.0933 -0.3894
vn -0.9163 0.0933 0.3894
vt 0.041069 0.406526
vt 0.041069 0.839501
vt 0.853439 0.771992
vt 0.003489 0.407965
vt 0.207124 0.839435
vt 0.003489 0.840940
vt 0.207124 0.406945
vt 0.891019 0.793683
vt 0.250211 0.839016
vt 0.257189 0.841917
vt 0.250211 0.406526
vt 0.257189 0.410791
vt 0.891019 0.837065
vt 0.300582 0.841917
vt 0.300582 0.410791
vt 0.853439 0.858756
vt 0.322279 0.837652
vt 0.157060 0.839016
vt 0.322279 0.406526
vt 0.157060 0.406526
vt 0.815860 0.837065
vt 0.200146 0.839435
vt 0.078648 0.407965
vt 0.200146 0.406945
vt 0.078648 0.840940
vt 0.815860 0.793683
vt 0.911276 0.782124
vt 0.074269 0.847918
vt 0.331471 0.909223
vt 0.853439 0.748741
vt 0.329257 0.851386
vt 0.911276 0.848891
vt 0.007954 0.847918
vt 0.554862 0.790391
vt 0.853439 0.882275
vt 0.488102 0.788605
vt 0.795603 0.848891
vt 0.454546 0.794274
vt 0.317813 0.848895
vt 0.331471 0.793550
vt 0.795603 0.782124
vt 0.251499 0.848895
vt 0.150082 0.529319
vt 0.649497 0.914553
vt 0.150082 0.536297
vt 0.235725 0.969285
vt 0.075473 0.955097
vt 0.438992 0.914167
vt 0.663062 0.784946
vt 0.436589 0.851386
vt 0.725844 0.748741
vt 0.003489 0.955097
vt 0.554862 0.897119
vt 0.663062 0.857356
vt 0.482394 0.895179
vt 0.725844 0.893561
vt 0.445970 0.901333
vt 0.322279 0.956075
vt 0.788625 0.857356
vt 0.438992 0.788605
vt 0.250294 0.956074
vt 0.788625 0.784946
vt 0.678556 0.793880
vt 0.157060 0.869846
vt 0.150082 0.406526
vt 0.725844 0.766610
vt 0.182487 0.858546
vt 0.678556 0.848421
vt 0.097685 0.420466
vt 0.649497 0.788605
vt 0.725844 0.875691
vt 0.604989 0.804682
vt 0.773131 0.848421
vt 0.561840 0.824114
vt 0.097685 0.645150
vt 0.773131 0.793880
vt 0.150082 0.659090
vt 0.235725 0.846413
vt 0.003489 0.003489
vt 0.656084 0.396047
vt 0.004322 0.013756
vt 0.004322 0.389281
vt 0.656084 0.389069
vt 0.003489 0.399548
vt 0.663062 0.379013
vt 0.654786 0.781627
vt 0.656084 0.770684
vt 0.656084 0.014432
vt 0.663062 0.003489
vt 0.654786 0.003489
vt 0.373671 0.749468
vt 0.944999 0.358827
vt 0.372367 0.760456
vt 0.716622 0.674440
vt 0.706129 0.663939
vt 0.673473 0.718162
vt 0.330574 0.727073
vt 0.988537 0.335119
vt 0.663062 0.707744
vt 0.329257 0.738176
vt 0.927101 0.663939
vt 0.916607 0.674440
vt 0.996511 0.731453
vt 0.283889 0.033942
vt 0.986209 0.741762
vt 0.283052 0.023633
vt 0.373671 0.415108
vt 0.322279 0.057651
vt 0.971418 0.707744
vt 0.330574 0.440018
vt 0.961007 0.718162
vt 0.706129 0.463815
vt 0.716622 0.453314
vt 0.944999 0.023675
vt 0.372367 0.024660
vt 0.373671 0.035648
vt 0.988537 0.047384
vt 0.663062 0.420010
vt 0.329257 0.046940
vt 0.673473 0.409592
vt 0.330574 0.058043
vt 0.916607 0.453314
vt 0.927101 0.463815
vt 0.373671 0.370008
vt 0.986209 0.385992
vt 0.283052 0.379404
vt 0.996511 0.396301
vt 0.283889 0.369094
vt 0.330574 0.345098
vt 0.961007 0.409592
vt 0.322279 0.345386
vt 0.971417 0.420010
s 1
usemtl EnemyBaseColor
f 1/1/1 2/2/2 4/6/3 3/4/4
f 3/5/4 4/7/3 6/11/5 5/9/6
f 5/10/6 6/12/5 8/15/7 7/14/8
f 7/14/8 8/15/7 10/19/9 9/17/10
f 9/18/10 10/20/9 12/24/13 11/22/14
f 11/23/14 12/25/13 2/2/2 1/1/1
f 19/46/31 27/67/25 31/78/30
usemtl EnemySecondaryColor
f 4/8/3 2/3/2 14/30/11 13/27/12
f 14/31/11 18/40/15 25/60/16 21/50/17
f 8/16/7 6/13/5 15/32/18 16/35/19
f 2/3/2 12/26/13 18/41/15 14/30/11
f 10/21/9 8/16/7 16/35/19 17/37/20
f 6/13/5 4/8/3 13/27/12 15/32/18
f 12/26/13 10/21/9 17/37/20 18/41/15
f 17/38/20 16/36/19 23/55/21 24/57/22
f 15/33/18 13/28/12 20/47/23 22/52/24
f 18/42/15 17/39/20 24/58/22 25/61/16
f 16/36/19 15/34/18 22/53/24 23/55/21
f 13/29/12 14/31/11 21/50/17 20/48/23
f 27/66/25 26/63/26 20/49/23 21/51/17
f 26/63/26 28/68/27 22/54/24 20/49/23
f 28/68/27 29/71/28 23/56/21 22/54/24
f 29/71/28 30/73/29 24/59/22 23/56/21
f 30/73/29 31/76/30 25/62/16 24/59/22
f 31/76/30 27/66/25 21/51/17 25/62/16
f 19/46/31 26/64/26 27/67/25
f 19/43/31 28/69/27 26/65/26
f 19/44/31 29/72/28 28/70/27
f 19/44/31 30/74/29 29/72/28
f 19/45/31 31/77/30 30/75/29
f 56/117/32 45/98/33 41/92/34 54/114/35
f 61/128/36 34/82/37 33/81/38 48/104/39
f 46/101/40 59/123/41 63/132/42 50/109/43
f 41/92/34 36/85/44 39/89/45 54/114/35
f 55/116/46 38/88/47 35/83/48 60/124/49
f 58/122/50 59/123/41 46/101/40 47/102/51 42/94/52 43/95/53 52/112/54 53/113/55
f 52/112/54 43/95/53 45/99/33 56/118/32
f 50/108/43 63/131/42 61/128/36 48/104/39
f 58/122/50 53/113/55 57/120/56 62/130/57
f 62/129/57 57/121/56 55/116/46 60/124/49
f 42/94/52 47/102/51 51/111/58 44/96/59
f 44/97/59 51/110/58 49/107/60 40/91/61
f 45/99/33 43/95/53 42/94/52 44/96/59
f 46/101/40 50/109/43 51/111/58 47/102/51
f 41/93/34 45/100/33 44/97/59 40/91/61
f 50/109/43 48/103/39 49/105/60 51/111/58
f 58/122/50 62/130/57 63/132/42 59/123/41
f 62/130/57 60/125/49 61/127/36 63/132/42
f 52/112/54 56/118/32 57/120/56 53/113/55
f 56/119/32 54/115/35 55/116/46 57/121/56
f 48/104/39 33/81/38 32/79/62 49/106/60
f 36/86/44 41/93/34 40/91/61 37/87/63
f 38/88/47 55/116/46 54/115/35 39/90/45
f 60/126/49 35/84/48 34/82/37 61/128/36
f 49/107/60 32/80/62 37/87/63 40/91/61
